<svg width="284" height="252" viewBox="0 0 284 252" fill="none" xmlns="http://www.w3.org/2000/svg">
<path d="M26.0404 13.4L25.3044 17.688H35.5124L34.7124 22.168H24.5044L23.7364 26.52H34.9044L34.1044 31H17.1764L21.0804 8.92H37.6884L36.8884 13.4H26.0404ZM62.2941 8.92L58.3901 31H50.8701L45.5901 16.376L43.0301 31H37.2701L41.1741 8.92H48.3421L53.8781 24.184L56.5341 8.92H62.2941ZM83.8664 13.4H76.7304L73.6264 31H67.8664L70.9704 13.4H63.7704L64.6024 8.92H84.6984L83.8664 13.4Z" fill="white"/>
<path d="M38.8764 38.5377C39.3244 38.5377 39.6204 38.8097 39.6204 39.2417C39.6204 39.6737 39.3244 39.9457 38.8764 39.9457C38.4284 39.9457 38.1324 39.6737 38.1324 39.2417C38.1324 38.8097 38.4284 38.5377 38.8764 38.5377ZM39.5964 44.5457H38.1564V40.2737H39.5964V44.5457ZM45.4691 39.0257V42.1217C45.4691 42.4017 45.4691 42.5697 45.4451 42.8977C45.3811 43.8257 44.7251 44.6577 43.0211 44.6577C41.3171 44.6577 40.6611 43.8257 40.5971 42.8977C40.5731 42.5697 40.5731 42.4017 40.5731 42.1217V39.0257H42.0131V42.3857C42.0131 42.5377 42.0131 42.6177 42.0211 42.7137C42.0611 43.2897 42.3891 43.6017 43.0211 43.6017C43.6531 43.6017 43.9811 43.2897 44.0211 42.7137C44.0291 42.6177 44.0291 42.5377 44.0291 42.3857V39.0257H45.4691ZM50.9072 40.1457H49.1152V44.5457H47.6752V40.1457H45.8832V39.0257H50.9072V40.1457ZM57.1522 38.6657V44.5457H55.7122V43.9217L55.3922 44.3937C55.1522 44.5697 54.7362 44.6577 54.3042 44.6577C53.1442 44.6577 52.4242 43.7697 52.4242 42.5057C52.4242 40.9857 53.3522 40.1617 54.4482 40.1617C54.8002 40.1617 55.2162 40.2417 55.4322 40.3697L55.7122 40.8257V38.6657H57.1522ZM54.8002 43.6817C55.3282 43.6817 55.7122 43.3617 55.7122 42.4657V42.2817C55.7122 41.4257 55.2722 41.1377 54.8402 41.1377C54.2802 41.1377 53.8962 41.5617 53.8962 42.4337C53.8962 43.2337 54.2962 43.6817 54.8002 43.6817ZM62.1997 42.3537C62.1997 42.4817 62.1917 42.6257 62.1757 42.7697H59.1997C59.2717 43.4817 59.5837 43.6817 59.9917 43.6817C60.3997 43.6817 60.6477 43.4737 60.7037 43.1457H62.1197C61.8717 44.1137 61.0717 44.6577 59.9757 44.6577C58.7517 44.6577 57.7757 43.9297 57.7757 42.4257C57.7757 41.1777 58.6317 40.1617 60.0557 40.1617C61.4797 40.1617 62.1997 41.2497 62.1997 42.3537ZM59.9837 41.1377C59.6077 41.1377 59.3437 41.3617 59.2477 41.8897H60.6957C60.6157 41.3857 60.3677 41.1377 59.9837 41.1377ZM70.7467 39.0257V44.5457H69.3067V42.2257C69.3067 41.7457 69.3067 41.0337 69.3227 40.4737C69.2267 41.0337 69.0667 41.7377 68.9387 42.2257L68.3307 44.5457H66.8507L66.2347 42.2257C66.1067 41.7457 65.9467 41.0337 65.8587 40.4737C65.8747 41.0337 65.8747 41.7457 65.8747 42.2257V44.5457H64.4347V39.0257H66.6827L67.6187 43.1457L68.5547 39.0257H70.7467ZM73.6655 40.1617C75.0655 40.1617 75.9615 41.0337 75.9615 42.4097C75.9615 43.7777 75.0655 44.6577 73.6655 44.6577C72.2655 44.6577 71.3695 43.7777 71.3695 42.4097C71.3695 41.0337 72.2655 40.1617 73.6655 40.1617ZM73.6655 43.6817C74.1775 43.6817 74.4895 43.2577 74.4895 42.4097C74.4895 41.5537 74.1775 41.1377 73.6655 41.1377C73.1535 41.1377 72.8415 41.5537 72.8415 42.4097C72.8415 43.2577 73.1535 43.6817 73.6655 43.6817ZM80.8821 41.3217C80.9141 41.5377 80.9221 41.7857 80.9221 42.1297V44.5457H79.4821V42.3697C79.4821 42.2337 79.4821 42.0017 79.4661 41.7857C79.4341 41.3777 79.2101 41.1377 78.7781 41.1377C78.3381 41.1377 78.0261 41.5617 78.0261 42.5297V44.5457H76.5861V40.2737H78.0261V40.9377L78.4101 40.4097C78.6741 40.2497 78.9781 40.1617 79.3701 40.1617C80.2501 40.1617 80.7701 40.5777 80.8821 41.3217ZM83.4625 41.2017V42.7777C83.4625 42.9217 83.4625 43.0817 83.4705 43.1937C83.5025 43.6257 83.6385 43.7217 84.3185 43.6897V44.5857C84.0385 44.6337 83.7745 44.6577 83.4705 44.6577C82.4065 44.6577 82.0865 44.3297 82.0385 43.6737C82.0225 43.4257 82.0225 43.2257 82.0225 42.9857V41.2017H81.3425V40.3057H82.0225V39.2017H83.4625V40.3057H84.4065V41.2017H83.4625ZM87.5216 40.1617C87.6576 40.1617 87.7456 40.1697 87.8496 40.1857V41.3617C86.7696 41.2897 86.3776 41.6897 86.3776 42.9777V44.5457H84.9376V40.2737H86.3776V41.1377L86.6816 40.5377C86.9136 40.2817 87.2496 40.1617 87.5216 40.1617ZM92.481 42.3537C92.481 42.4817 92.473 42.6257 92.457 42.7697H89.481C89.553 43.4817 89.865 43.6817 90.273 43.6817C90.681 43.6817 90.929 43.4737 90.985 43.1457H92.401C92.153 44.1137 91.353 44.6577 90.257 44.6577C89.033 44.6577 88.057 43.9297 88.057 42.4257C88.057 41.1777 88.913 40.1617 90.337 40.1617C91.761 40.1617 92.481 41.2497 92.481 42.3537ZM90.265 41.1377C89.889 41.1377 89.625 41.3617 89.529 41.8897H90.977C90.897 41.3857 90.649 41.1377 90.265 41.1377ZM97.3577 40.2737V44.5457H95.9177V43.8257L95.5337 44.4097C95.2697 44.5697 94.9657 44.6577 94.5737 44.6577C93.6937 44.6577 93.1577 44.1617 93.0617 43.5777C93.0297 43.3617 93.0217 43.1137 93.0217 42.7697V40.2737H94.4617V42.4497C94.4617 42.5857 94.4697 42.8177 94.4937 43.0337C94.5417 43.4417 94.7337 43.6817 95.1897 43.6817C95.6457 43.6817 95.9177 43.2577 95.9177 42.6897V40.2737H97.3577ZM98.9389 38.5377C99.3869 38.5377 99.6829 38.8097 99.6829 39.2417C99.6829 39.6737 99.3869 39.9457 98.9389 39.9457C98.4909 39.9457 98.1949 39.6737 98.1949 39.2417C98.1949 38.8097 98.4909 38.5377 98.9389 38.5377ZM99.6589 44.5457H98.2189V40.2737H99.6589V44.5457ZM101.932 38.6657V43.0097C101.932 43.2097 101.932 43.2977 101.948 43.4017C101.972 43.5697 102.044 43.6257 102.42 43.6097V44.5857C102.156 44.6097 101.9 44.6257 101.58 44.6257C100.916 44.6257 100.54 44.3617 100.508 43.7937C100.492 43.5697 100.492 43.3537 100.492 43.0337V38.6657H101.932Z" fill="#5E81F4"/>
<path d="M283.168 251.09H0.204097C0.149967 251.09 0.0980541 251.06 0.0597785 251.006C0.0215029 250.953 0 250.88 0 250.805C0.00104501 250.73 0.0228832 250.658 0.0609346 250.605C0.0989861 250.552 0.150294 250.521 0.204097 250.52H283.168C283.222 250.52 283.274 250.55 283.313 250.603C283.351 250.657 283.372 250.729 283.372 250.805C283.372 250.88 283.351 250.953 283.313 251.006C283.274 251.06 283.222 251.09 283.168 251.09Z" fill="#3C3AB8"/>
<path d="M18.1946 185.341C18.0663 184.775 17.8864 184.221 17.6572 183.687C17.4125 183.082 17.1339 182.492 16.8228 181.919C16.2866 180.927 15.6693 179.981 14.9772 179.09C14.9536 179.061 14.9205 179.04 14.8835 179.033C14.8465 179.025 14.8079 179.03 14.7744 179.048C14.7409 179.065 14.7146 179.094 14.7 179.129C14.6854 179.164 14.6834 179.203 14.6943 179.239C14.7863 179.614 14.9065 180.109 15.0479 180.653C15.1893 181.198 15.3025 181.869 15.4298 182.506C15.6985 183.779 15.8823 185.136 16.1369 186.098L16.547 187.774C16.6623 188.222 16.8016 188.663 16.9642 189.096L15.7267 188.007C15.3166 187.632 14.857 187.3 14.4256 186.961C14.6484 186.38 14.7071 185.748 14.5953 185.136C14.4667 184.086 14.1955 183.058 13.7892 182.081C13.5529 181.541 13.2813 181.017 12.976 180.512C12.6162 179.956 12.2267 179.42 11.8093 178.907C11.0849 178.01 10.2802 177.182 9.40505 176.432C9.37557 176.408 9.33928 176.396 9.30183 176.396C9.26439 176.395 9.2279 176.407 9.19804 176.43C9.16818 176.452 9.14663 176.484 9.13675 176.52C9.12687 176.557 9.12922 176.595 9.14341 176.63C9.3202 176.99 9.55355 177.45 9.79397 177.987L10.5011 179.748L11.8234 183.192C12.0638 183.772 12.2972 184.302 12.5305 184.769C12.7111 185.201 12.9141 185.623 13.1387 186.034L12.1275 185.327L11.0739 184.705C11.0154 184.492 10.9117 184.294 10.7698 184.125C10.5571 183.867 10.3203 183.631 10.0627 183.418C9.32681 182.858 8.50539 182.421 7.63017 182.124C6.59635 181.784 5.5152 181.61 4.42689 181.608C3.47669 181.583 2.52701 181.674 1.59839 181.876C1.45697 181.876 1.47111 182.166 1.59839 182.202C2.44144 182.467 3.26993 182.776 4.0804 183.128C5.04916 183.524 6.025 184.019 6.81698 184.295C8.46458 184.896 9.95661 185.278 10.6637 185.157L11.7103 185.78C12.0497 185.992 12.375 186.232 12.7144 186.487C12.2803 186.437 11.8429 186.42 11.4062 186.437C10.8834 186.473 10.3637 186.544 9.85054 186.65C9.34106 186.755 8.84353 186.911 8.36558 187.116C7.83515 187.328 7.32007 187.576 6.82405 187.859C6.32906 188.149 5.86943 188.446 5.48051 188.721C5.09159 188.997 4.77338 189.287 4.51882 189.492C4.40568 189.584 4.40568 189.81 4.51882 189.782C5.25452 189.575 6.00033 189.405 6.75333 189.273L8.21001 189.011C8.69793 188.948 9.17877 188.863 9.62426 188.764C10.6142 188.545 11.5618 188.354 12.3538 188.113C12.9446 187.99 13.5047 187.749 14.0014 187.406C14.4115 187.738 14.8499 188.05 15.2459 188.41L16.4339 189.535C16.0061 189.425 15.5714 189.345 15.1328 189.294C14.6266 189.227 14.1151 189.208 13.6054 189.238C12.5074 189.305 11.4243 189.526 10.388 189.895C9.84347 190.079 9.33434 190.27 8.88178 190.475C8.42922 190.68 8.04737 190.878 7.76452 191.034C7.63017 191.104 7.59481 191.331 7.71502 191.324C8.23829 191.274 9.12927 191.281 10.0839 191.274C10.5789 191.274 11.0809 191.274 11.5901 191.274H13.0397C14.0509 191.274 15.0621 191.161 15.8682 191.076C16.467 191.054 17.0547 190.907 17.5936 190.645C18.3573 191.394 19.0078 192.229 19.7149 193.049C18.8097 192.682 17.8577 192.444 16.8864 192.342C15.7814 192.255 14.6699 192.305 13.5771 192.49C12.619 192.644 11.6736 192.869 10.7486 193.162C10.6072 193.212 10.5365 193.424 10.6567 193.431L13.0609 193.82C14.0155 194.025 15.1469 194.187 16.0237 194.315C16.9618 194.437 17.9063 194.503 18.8522 194.513C19.4665 194.587 20.0895 194.524 20.6766 194.329L21.6312 195.623L22.5222 196.959C21.6654 196.494 20.7462 196.153 19.7927 195.948C18.6998 195.706 17.581 195.602 16.4622 195.637C15.4918 195.659 14.5236 195.739 13.5629 195.878C13.4074 195.878 13.3155 196.104 13.4286 196.139C13.9448 196.316 14.8428 196.599 15.8116 196.896C16.775 197.262 17.7597 197.569 18.7603 197.815C19.6902 198.055 20.6352 198.232 21.5888 198.345C22.1836 198.456 22.7949 198.444 23.3849 198.31L24.1981 199.724L24.9477 201.139C24.144 200.587 23.2653 200.153 22.3384 199.852C21.2719 199.507 20.168 199.291 19.0502 199.208C18.0706 199.11 17.0859 199.07 16.1015 199.088C15.946 199.088 15.8257 199.293 15.946 199.342C16.4904 199.569 17.3107 199.986 18.2795 200.403C19.2006 200.853 20.1447 201.254 21.108 201.605C22.0048 201.931 22.9211 202.2 23.8516 202.411C24.4276 202.59 25.0347 202.645 25.6336 202.574C26.1003 203.536 26.4892 204.54 26.8781 205.537C26.1399 204.905 25.3192 204.377 24.4385 203.967C23.4123 203.517 22.3374 203.187 21.2353 202.984C20.2739 202.785 19.3008 202.648 18.3219 202.574C18.1663 202.574 18.032 202.744 18.1451 202.807C18.6542 203.083 19.425 203.578 20.3443 204.087C21.2635 204.596 22.2111 205.169 23.0101 205.572C24.8982 206.442 26.673 207.156 27.4084 207.036L27.8681 208.57L28.2711 210.126C27.6198 209.406 26.8671 208.784 26.0366 208.28C25.0803 207.713 24.0595 207.262 22.996 206.937C22.0665 206.651 21.1223 206.415 20.1675 206.23C20.019 206.23 19.8634 206.371 19.9624 206.442C20.3938 206.781 21.1858 207.326 21.9777 207.941C22.7697 208.556 23.6748 209.214 24.4527 209.695C26.1922 210.777 27.8822 211.703 28.6106 211.689C28.8085 212.732 28.9338 213.789 28.9853 214.85C28.9991 214.922 29.0396 214.986 29.0986 215.029C29.1576 215.072 29.2308 215.091 29.3035 215.083C29.3403 215.087 29.3775 215.083 29.4129 215.073C29.4483 215.062 29.4812 215.044 29.5096 215.02C29.5379 214.996 29.5612 214.967 29.5781 214.934C29.5949 214.901 29.605 214.865 29.6076 214.828C29.5587 213.739 29.4311 212.654 29.2258 211.583C29.9329 211.392 31.1845 209.843 32.0543 207.609C32.4574 206.465 32.7279 205.279 32.8604 204.073C32.9869 203.008 33.0507 201.936 33.0513 200.863C33.0513 200.693 32.8109 200.665 32.7402 200.82L31.3825 203.811C30.8168 204.992 30.2652 206.18 29.8905 207.107C29.5062 208.067 29.1803 209.049 28.9146 210.048C28.7873 209.511 28.6459 208.973 28.5045 208.436L28.0236 206.838C28.5203 206.483 28.9134 206.002 29.1621 205.445C29.6681 204.533 30.0509 203.558 30.3006 202.546C30.565 201.374 30.7002 200.176 30.7037 198.975C30.7042 197.914 30.6476 196.854 30.5339 195.8C30.5339 195.637 30.2723 195.637 30.2157 195.8C30.0036 196.507 29.5935 197.695 29.1904 198.904C28.7873 200.113 28.3277 201.379 28.1014 202.334C27.8277 203.327 27.6245 204.338 27.4933 205.36C27.0902 204.328 26.6872 203.295 26.2063 202.291C26.6675 201.882 27.0157 201.361 27.2175 200.778C27.5916 199.81 27.8596 198.805 28.0166 197.78C28.1389 196.604 28.1389 195.419 28.0166 194.244C27.9121 193.195 27.754 192.152 27.5428 191.119C27.5428 190.963 27.26 190.984 27.2246 191.154C27.0832 191.861 26.7933 193.099 26.5175 194.336C26.2417 195.573 25.9306 196.875 25.8103 197.872C25.6573 198.89 25.5675 199.918 25.5416 200.948L24.7709 199.477L23.9294 198.063C24.3482 197.61 24.6365 197.053 24.7638 196.45C25.0413 195.451 25.2073 194.424 25.2588 193.388C25.2578 192.202 25.1441 191.018 24.9194 189.853C24.6436 188.629 24.2971 187.456 24.0638 186.741C24.0143 186.572 23.7597 186.628 23.7526 186.798C23.6748 187.555 23.5475 188.792 23.4203 190.093C23.293 191.394 23.0808 192.688 23.0526 193.629C23.007 194.659 23.0259 195.691 23.1091 196.719L22.1899 195.305L21.1999 193.968C21.578 193.476 21.8217 192.893 21.907 192.278C22.077 191.25 22.1221 190.206 22.0414 189.167C21.9168 187.959 21.6437 186.772 21.2282 185.631C20.8457 184.602 20.409 183.595 19.92 182.612C19.8996 182.581 19.8697 182.558 19.8349 182.545C19.8001 182.533 19.7622 182.533 19.727 182.544C19.6918 182.555 19.6613 182.577 19.6399 182.608C19.6186 182.638 19.6077 182.674 19.6089 182.711C19.6725 183.482 19.7149 184.762 19.7715 186.048C19.8281 187.335 19.7715 188.707 19.8917 189.676C19.954 190.709 20.0839 191.736 20.2806 192.752C19.5735 191.903 18.8664 191.034 18.0815 190.256C18.3844 189.716 18.5405 189.107 18.534 188.488C18.5601 187.429 18.4459 186.371 18.1946 185.341Z" fill="#8D92E9"/>
<path d="M42.0033 159.107C42.9296 157.969 44.1247 156.413 45.2561 154.935C46.3875 153.457 47.4411 152.107 48.0846 151.244C48.2401 151.053 48.0846 150.799 47.929 150.919C47.1158 151.428 45.8076 152.333 44.3934 153.373C43.0416 154.414 41.7764 155.563 40.6103 156.809C39.5194 158.073 38.54 159.429 37.6828 160.861L38.5313 157.856L38.9627 156.357L39.4647 154.879C40.1719 154.964 42.3357 153.175 44.8247 150.792C46.9461 148.713 50.1423 145.021 51.6485 143.522C51.8111 143.346 51.7121 143.084 51.5212 143.183C50.2449 143.824 49.0034 144.532 47.8017 145.304C47.0946 145.771 46.3097 146.273 45.6167 146.796C44.9237 147.32 44.2732 147.864 43.7216 148.38C43.0719 148.985 42.4603 149.63 41.8902 150.311C41.3386 150.954 40.8436 151.569 40.4335 152.135C40.9992 150.721 41.5012 149.271 42.1164 147.892C42.7994 147.235 43.3597 146.462 43.7711 145.608C44.4782 144.456 45.2561 142.907 46.1188 141.245C46.4936 140.538 46.8754 139.633 47.2997 138.735L47.9149 137.321C48.127 136.854 48.3462 136.387 48.5513 135.907C49.3857 134.061 50.1918 132.329 50.7292 131.296C50.8494 131.056 50.6444 130.907 50.4605 131.112C49.2963 132.389 48.2079 133.732 47.2007 135.136L46.2885 136.416L45.4258 137.759C44.9092 138.555 44.437 139.379 44.0115 140.227C43.2985 141.641 42.6865 143.104 42.1801 144.604C41.8578 145.516 41.6604 146.468 41.5932 147.433L41.183 148.522L40.7658 149.611L39.9244 151.789C39.9951 151.081 40.0375 150.374 40.0658 149.498C40.0941 148.621 40.0658 147.758 40.0658 146.825C40.0658 146.047 40.0658 145.163 39.9668 144.244C39.8678 143.324 39.8395 142.377 39.7829 141.458C39.6274 139.598 39.5284 137.879 39.4435 136.819C39.4435 136.571 39.1394 136.67 39.0758 136.939C38.9344 137.526 38.7576 138.304 38.5525 139.188C38.3475 140.072 38.199 141.076 38.0293 142.094C37.8596 143.112 37.7606 144.166 37.6616 145.156C37.5619 146.057 37.5218 146.964 37.5413 147.871C37.5908 151.499 38.298 154.235 38.9061 154.674L38.4111 156.13C38.2626 156.625 38.1283 157.12 37.9868 157.608L37.1383 160.571C37.1318 158.916 37.0279 157.264 36.8272 155.621C36.714 154.073 36.3463 152.121 36.0493 150.297C35.7523 148.472 35.4553 146.761 35.2856 145.707C35.2856 145.467 34.9674 145.587 34.925 145.856C34.7694 147.072 34.4936 149.031 34.3734 151.096C34.2267 153.031 34.2456 154.976 34.43 156.908C34.5772 158.452 34.8853 159.976 35.3493 161.455C35.7382 162.622 36.1271 163.371 36.4524 163.576L36.1059 165.075L35.8442 166.596L35.321 169.58C35.1381 167.929 34.8571 166.29 34.4795 164.672C34.2037 163.145 33.6804 161.243 33.1642 159.433C32.648 157.622 32.2591 155.961 31.9763 154.928C31.9126 154.695 31.651 154.843 31.6369 155.126C31.4884 157.566 31.4671 163.088 32.2379 166.214C32.945 169.75 34.2956 172.331 34.9674 172.613C34.6775 174.65 34.6492 176.708 34.5431 178.758C34.3946 178.094 34.1966 177.344 33.9492 176.538C33.8289 176.135 33.6946 175.718 33.5532 175.286C33.4117 174.855 33.2632 174.417 33.136 173.971C32.6905 172.486 31.9339 170.648 31.2409 168.901C30.5479 167.154 29.9751 165.528 29.5862 164.524C29.5013 164.291 29.2538 164.467 29.2751 164.75C29.3175 165.358 29.3741 166.164 29.4448 167.084C29.5155 168.003 29.5862 169.007 29.7771 170.047C29.968 171.086 30.1378 172.133 30.3428 173.116C30.4418 173.603 30.5408 174.077 30.661 174.53C30.7812 174.982 30.9297 175.392 31.0641 175.774C31.5675 177.24 32.1969 178.66 32.945 180.017C33.5744 181.049 34.1259 181.7 34.4866 181.813C34.4866 183.857 34.4866 185.907 34.529 187.958C34.0472 186.382 33.4735 184.835 32.8107 183.326C32.5066 182.619 32.1036 181.834 31.7005 181.035L31.0499 179.819L30.4135 178.567L28.2356 174.388C28.1154 174.169 27.8962 174.388 27.9457 174.65C28.179 175.873 28.5679 177.867 29.0558 179.883C29.5514 181.701 30.1607 183.487 30.8802 185.229C32.2945 188.481 33.8855 190.808 34.5997 190.999C34.6634 193.042 34.7482 195.093 34.8543 197.137C34.3232 195.578 33.6998 194.053 32.9875 192.569C31.4658 189.666 29.7923 186.845 27.9739 184.118C27.8467 183.92 27.6345 184.118 27.7052 184.394C28.5699 187.86 29.7121 191.251 31.1207 194.534C32.6551 197.731 34.3027 200.007 35.0311 200.191C35.1654 202.235 35.3068 204.279 35.4836 206.315C34.8975 204.777 34.2247 203.273 33.4683 201.811C31.8503 198.963 30.0848 196.201 28.179 193.537C28.0447 193.346 27.8396 193.537 27.9174 193.82C28.9015 197.251 30.1546 200.599 31.6651 203.833C33.2986 206.987 35.024 209.207 35.7594 209.349C35.9574 211.385 36.1766 213.415 36.4665 215.444C36.4665 215.699 36.6645 215.889 36.8342 215.868C37.0039 215.847 37.1171 215.621 37.0888 215.366C36.8272 213.344 36.6079 211.321 36.3817 209.292C37.0888 209.087 38.3404 206.57 39.5284 203.246C40.5254 200.375 41.6497 195.418 42.1306 193.261C42.1872 193.014 41.968 192.823 41.8477 193.014C40.1238 195.715 38.6538 198.57 37.4565 201.542C36.8761 203.121 36.4291 204.746 36.12 206.4C35.9362 204.321 35.7877 202.235 35.6533 200.156C36.3605 199.972 37.7111 197.497 38.998 194.216C40.0941 191.388 41.3528 186.438 41.9255 184.316C41.9892 184.076 41.777 183.878 41.6497 184.062C39.8423 186.705 38.2801 189.507 36.9827 192.434C36.3546 193.997 35.8533 195.607 35.4836 197.25C35.3799 195.166 35.2951 193.08 35.2291 190.992C35.9362 190.829 37.3504 188.396 38.7647 185.165C39.3516 183.751 40.0234 181.848 40.5961 180.024C41.1689 178.2 41.8053 176.686 42.1377 175.711C42.2084 175.491 42.0033 175.293 41.876 175.456C41.2891 176.163 40.3274 177.401 39.3374 178.822C39.097 179.176 38.8425 179.529 38.6303 179.918C38.4182 180.307 38.1778 180.696 37.9656 181.085C37.5343 181.863 37.1454 182.626 36.8342 183.326C36.158 184.866 35.607 186.457 35.1866 188.085C35.1866 185.999 35.123 183.913 35.1371 181.827C35.4907 181.757 36.0493 181.12 36.6999 180.116C37.5286 178.882 38.2842 177.599 38.9627 176.276C39.1324 175.951 39.3021 175.569 39.4789 175.223L40.0729 174.049C40.4759 173.243 40.879 172.387 41.2538 171.56C41.6285 170.732 42.0387 169.933 42.3922 169.226C42.7458 168.519 43.0428 167.897 43.2761 167.43C43.3822 167.218 43.2054 166.992 43.0499 167.14C42.3427 167.798 41.2608 168.908 40.1011 170.209C39.0103 171.505 38.0243 172.886 37.1524 174.339C36.9155 174.731 36.703 175.137 36.516 175.555C36.3322 175.958 36.1554 176.354 35.9927 176.743C35.6745 177.521 35.3988 178.263 35.1937 178.921C35.2998 176.842 35.328 174.763 35.618 172.698C36.3251 172.635 38.0293 170.428 40.0234 167.621C41.6356 165.16 44.153 161.002 45.2844 159.242C45.4117 159.037 45.2844 158.796 45.0934 158.931C44.3863 159.517 43.1276 160.515 41.8336 161.695C40.6042 162.872 39.4649 164.139 38.4253 165.486C37.4843 166.862 36.6544 168.312 35.9432 169.82L36.4453 166.751L36.714 165.217L37.0676 163.697C37.4211 163.697 38.107 163.209 38.9627 162.381C39.8183 161.554 40.8861 160.387 42.0033 159.107Z" fill="#8D92E9"/>
<path d="M58.3521 182.902C60.3109 182.068 63.1323 180.378 64.3486 179.692C64.49 179.614 64.391 179.395 64.2213 179.409C63.5141 179.48 62.2696 179.628 60.9756 179.869C59.736 180.095 58.5194 180.434 57.3409 180.88C56.2649 181.305 55.2439 181.858 54.3003 182.528C55.0074 181.382 55.7146 180.265 56.4217 179.147C57.0652 179.466 59.1583 179.02 61.4776 178.242C62.4747 177.903 63.698 177.344 64.8223 176.828C65.9467 176.312 66.9437 175.873 67.5872 175.598C67.7286 175.541 67.6438 175.322 67.4811 175.315C66.4073 175.287 65.3329 175.325 64.2637 175.428C63.0195 175.538 61.7898 175.775 60.5937 176.135C59.494 176.494 58.4402 176.98 57.4541 177.585C58.0198 176.786 58.5713 175.987 59.1583 175.209C59.8654 175.096 61.3362 173.688 62.8636 171.878C63.203 171.475 63.5707 171.001 63.9313 170.464L65.0698 168.894C65.702 168.007 66.3818 167.155 67.1063 166.341C67.1312 166.313 67.1456 166.276 67.1474 166.239C67.1492 166.201 67.1382 166.163 67.1162 166.132C67.0942 166.101 67.0625 166.079 67.0261 166.068C66.9897 166.057 66.9507 166.059 66.9154 166.073C65.8805 166.54 64.897 167.113 63.9808 167.784C63.4295 168.179 62.8985 168.601 62.3898 169.05C61.9318 169.461 61.4996 169.9 61.0958 170.365C59.6108 172.126 58.7623 173.901 58.734 174.707C58.1259 175.499 57.5672 176.326 56.9874 177.132C57.2039 176.007 57.3363 174.868 57.3834 173.724C57.4399 172.621 57.3834 171.164 57.3339 169.764C57.2844 168.364 57.249 167.027 57.249 166.228C57.2477 166.188 57.232 166.15 57.2049 166.12C57.1777 166.09 57.1409 166.071 57.1009 166.066C57.0609 166.061 57.0204 166.07 56.9867 166.092C56.9529 166.114 56.9281 166.147 56.9167 166.186C56.4667 167.319 56.0865 168.478 55.7782 169.658C55.4093 170.946 55.1724 172.268 55.0711 173.604C54.9367 176.17 55.3751 178.278 55.8843 178.78C55.1771 179.876 54.47 180.979 53.7629 182.103C53.9005 180.97 53.9572 179.829 53.9326 178.688C53.8831 177.377 53.7674 176.07 53.5861 174.77C53.4093 173.391 53.2467 172.083 53.1477 171.291C53.1398 171.253 53.1189 171.219 53.0887 171.194C53.0584 171.169 53.0205 171.156 52.9815 171.156C52.9425 171.156 52.9047 171.169 52.8744 171.194C52.8441 171.219 52.8233 171.253 52.8153 171.291C52.1233 173.7 51.7268 176.184 51.6344 178.688C51.6839 181.241 52.2072 183.305 52.7588 183.786C52.0941 184.918 51.4506 186.063 50.8213 187.209C50.9073 186.072 50.9073 184.93 50.8213 183.793C50.7152 181.601 49.9373 178.066 49.6686 176.51C49.6686 176.467 49.6515 176.425 49.621 176.395C49.5905 176.364 49.5491 176.347 49.506 176.347C49.4629 176.347 49.4215 176.364 49.391 176.395C49.3605 176.425 49.3434 176.467 49.3434 176.51C48.8238 178.935 48.5865 181.412 48.6362 183.892C48.813 186.431 49.4353 188.474 50.0081 188.927C49.3858 190.087 48.813 191.26 48.219 192.463C48.267 191.322 48.2197 190.18 48.0776 189.047C47.673 186.621 47.1395 184.218 46.4795 181.849C46.4691 181.814 46.4476 181.783 46.4183 181.761C46.389 181.739 46.3534 181.727 46.3169 181.727C46.2803 181.727 46.2448 181.739 46.2154 181.761C46.1861 181.783 46.1647 181.814 46.1542 181.849C46.0411 182.641 45.8785 183.935 45.7724 185.299C45.6618 186.608 45.6618 187.923 45.7724 189.231C46.0552 191.741 46.7694 193.771 47.3634 194.181C46.7836 195.362 46.2744 196.571 45.737 197.766C45.7285 196.623 45.6244 195.483 45.4259 194.358C45.1987 193.072 44.8941 191.802 44.5137 190.553C44.146 189.245 43.7571 188.001 43.5167 187.244C43.5089 187.208 43.4889 187.175 43.4599 187.151C43.431 187.128 43.3948 187.115 43.3576 187.115C43.3203 187.115 43.2841 187.128 43.2552 187.151C43.2262 187.175 43.2062 187.208 43.1984 187.244C42.9127 189.703 42.8985 192.186 43.156 194.648C43.552 197.165 44.3864 199.152 44.9945 199.541C44.5066 200.757 44.0258 201.98 43.5803 203.225C43.4889 202.083 43.3164 200.949 43.0641 199.831C42.7579 198.556 42.3849 197.298 41.9468 196.062C41.5155 194.768 41.0771 193.53 40.8013 192.781C40.7899 192.743 40.7653 192.711 40.7322 192.69C40.699 192.67 40.6594 192.661 40.6207 192.667C40.582 192.674 40.5468 192.693 40.5215 192.723C40.4962 192.753 40.4826 192.791 40.4831 192.83C40.303 195.319 40.4122 197.82 40.8084 200.283C41.3529 202.787 42.3075 204.717 42.9297 205.064C42.5055 206.315 42.1378 207.574 41.7913 208.84C41.6148 207.707 41.3621 206.587 41.0346 205.488C40.4124 203.366 38.9133 200.036 38.3476 198.551C38.3429 198.53 38.3342 198.51 38.3219 198.493C38.3096 198.475 38.294 198.46 38.276 198.449C38.2579 198.437 38.2378 198.429 38.2167 198.426C38.1956 198.422 38.174 198.423 38.1531 198.427C38.1322 198.432 38.1124 198.441 38.0949 198.453C38.0774 198.465 38.0625 198.481 38.051 198.499C38.0395 198.517 38.0317 198.537 38.0279 198.558C38.0242 198.579 38.0247 198.601 38.0294 198.622C37.9785 201.141 38.2422 203.656 38.8143 206.11C39.5214 208.606 40.6457 210.445 41.3246 210.735C41.0175 212.017 40.7814 213.315 40.6174 214.624C40.6125 214.665 40.6161 214.706 40.6279 214.745C40.6397 214.784 40.6596 214.821 40.6861 214.852C40.7127 214.883 40.7454 214.909 40.7823 214.927C40.8192 214.944 40.8593 214.955 40.9003 214.956C40.9796 214.964 41.0591 214.942 41.1222 214.893C41.1854 214.844 41.2275 214.773 41.2397 214.695C41.4021 213.412 41.6382 212.139 41.9468 210.883C42.654 210.947 44.4713 209.83 46.3876 208.352C48.0352 207.058 50.298 204.724 51.3375 203.734C51.4506 203.614 51.295 203.43 51.1395 203.487C48.9241 204.285 46.8189 205.362 44.8743 206.69C43.9568 207.385 43.1279 208.19 42.4065 209.087C42.753 207.807 43.1136 206.527 43.552 205.269C44.2591 205.396 46.1542 204.434 48.1908 203.069C50.0175 201.709 51.7713 200.252 53.4447 198.707C53.5649 198.593 53.4447 198.395 53.2608 198.452C52.5537 198.678 51.387 199.081 50.1566 199.583C48.9871 200.05 47.8628 200.623 46.7977 201.295C45.8277 201.925 44.9374 202.671 44.146 203.515C44.5844 202.256 45.0723 201.012 45.5602 199.781C46.2674 199.965 48.212 199.124 50.3404 197.872C52.2569 196.601 54.0963 195.217 55.8489 193.728C55.9691 193.622 55.8489 193.417 55.6721 193.46C54.965 193.665 53.7629 194.018 52.5113 194.464C51.316 194.882 50.1571 195.397 49.0464 196.005C48.0461 196.588 47.114 197.281 46.2674 198.07C46.8048 196.847 47.3281 195.623 47.9079 194.428C48.615 194.641 50.595 193.919 52.7871 192.753C53.8644 192.139 54.9055 191.463 55.9055 190.73C56.952 190.023 57.9066 189.281 58.4794 188.842C58.6138 188.75 58.4794 188.538 58.3238 188.573C56.0027 189.068 53.7446 189.823 51.592 190.822C50.5652 191.362 49.5982 192.01 48.707 192.753C49.308 191.557 49.8949 190.362 50.5243 189.217C51.1819 189.464 53.2396 188.828 55.4741 187.76C57.4884 186.665 59.4428 185.464 61.3291 184.161C61.4706 184.069 61.3291 183.857 61.1877 183.885C58.847 184.241 56.558 184.88 54.371 185.787C53.3184 186.272 52.3243 186.874 51.4082 187.583C52.0446 186.41 52.6951 185.25 53.374 184.104C53.9892 184.43 56.0752 183.85 58.3521 182.902Z" fill="#8D92E9"/>
<path d="M31.2834 250.899H39.9811C46.8614 247.88 51.9103 237.888 51.9103 226.015C51.9443 221.363 51.1147 216.746 49.4636 212.396H21.7655C20.1144 216.746 19.2848 221.363 19.3189 226.015C19.3189 237.909 24.3748 247.901 31.2834 250.899Z" fill="#6766AE"/>
<path d="M178.415 66.1843C190.408 66.1843 200.131 56.4618 200.131 44.4685C200.131 32.4752 190.408 22.7527 178.415 22.7527C166.421 22.7527 156.699 32.4752 156.699 44.4685C156.699 56.4618 166.421 66.1843 178.415 66.1843Z" fill="#3C3AB8"/>
<path d="M178.415 66.5377C174.05 66.5377 169.783 65.2433 166.154 62.8183C162.524 60.3933 159.696 56.9465 158.025 52.9139C156.355 48.8812 155.918 44.4438 156.769 40.1628C157.621 35.8817 159.723 31.9494 162.809 28.8629C165.896 25.7764 169.828 23.6745 174.109 22.823C178.39 21.9714 182.828 22.4085 186.86 24.0789C190.893 25.7492 194.34 28.5779 196.765 32.2072C199.19 35.8365 200.484 40.1034 200.484 44.4683C200.478 50.3197 198.151 55.9299 194.014 60.0675C189.876 64.2051 184.266 66.5321 178.415 66.5377ZM178.415 23.1061C174.19 23.1061 170.059 24.3589 166.546 26.7063C163.033 29.0536 160.295 32.3899 158.678 36.2933C157.062 40.1968 156.639 44.492 157.463 48.6359C158.287 52.7797 160.322 56.5861 163.309 59.5737C166.297 62.5613 170.103 64.5958 174.247 65.4201C178.391 66.2443 182.686 65.8213 186.59 64.2044C190.493 62.5876 193.829 59.8495 196.177 56.3365C198.524 52.8235 199.777 48.6934 199.777 44.4683C199.771 38.8044 197.519 33.3741 193.514 29.3691C189.509 25.3641 184.078 23.1117 178.415 23.1061Z" fill="#3C3AB8"/>
<path d="M178.414 63.7232C189.049 63.7232 197.669 55.1024 197.669 44.4682C197.669 33.8339 189.049 25.2131 178.414 25.2131C167.78 25.2131 159.159 33.8339 159.159 44.4682C159.159 55.1024 167.78 63.7232 178.414 63.7232Z" fill="white"/>
<path d="M178.415 64.0768C174.537 64.0768 170.745 62.9267 167.521 60.7721C164.296 58.6175 161.783 55.5551 160.299 51.9721C158.815 48.3891 158.426 44.4464 159.183 40.6428C159.94 36.8391 161.807 33.3452 164.549 30.6028C167.292 27.8605 170.786 25.993 174.589 25.2364C178.393 24.4798 182.336 24.8681 185.919 26.3522C189.502 27.8364 192.564 30.3496 194.719 33.5743C196.873 36.7989 198.023 40.59 198.023 44.4682C198.02 49.6676 195.952 54.6529 192.276 58.3294C188.599 62.0059 183.614 64.073 178.415 64.0768ZM178.415 25.5667C174.676 25.5667 171.022 26.6753 167.914 28.7522C164.805 30.8291 162.383 33.7811 160.952 37.2349C159.521 40.6887 159.147 44.4892 159.876 48.1557C160.606 51.8222 162.406 55.1901 165.049 57.8335C167.693 60.477 171.061 62.2771 174.727 63.0065C178.394 63.7358 182.194 63.3615 185.648 61.9309C189.102 60.5003 192.054 58.0776 194.131 54.9693C196.208 51.861 197.316 48.2066 197.316 44.4682C197.311 39.457 195.317 34.6526 191.774 31.1091C188.23 27.5656 183.426 25.5724 178.415 25.5667Z" fill="#3C3AB8"/>
<path d="M178.415 46.4976C179.536 46.4976 180.444 45.589 180.444 44.4682C180.444 43.3473 179.536 42.4387 178.415 42.4387C177.294 42.4387 176.385 43.3473 176.385 44.4682C176.385 45.589 177.294 46.4976 178.415 46.4976Z" fill="#3C3AB8"/>
<path d="M178.414 46.8512C177.941 46.8512 177.479 46.7108 177.086 46.4479C176.693 46.185 176.386 45.8113 176.206 45.3741C176.025 44.937 175.978 44.4561 176.071 43.9922C176.164 43.5284 176.392 43.1026 176.727 42.7686C177.062 42.4346 177.488 42.2075 177.953 42.1161C178.417 42.0247 178.897 42.073 179.334 42.255C179.771 42.437 180.143 42.7444 180.405 43.1384C180.667 43.5324 180.806 43.9952 180.805 44.4682C180.805 44.7817 180.743 45.0922 180.623 45.3818C180.502 45.6714 180.326 45.9344 180.104 46.1558C179.882 46.3771 179.619 46.5525 179.329 46.6719C179.039 46.7912 178.728 46.8521 178.414 46.8512ZM178.414 42.7852C178.082 42.7852 177.756 42.8839 177.479 43.0689C177.203 43.2538 176.987 43.5166 176.86 43.8242C176.732 44.1317 176.699 44.4701 176.764 44.7965C176.829 45.123 176.989 45.4229 177.224 45.6582C177.46 45.8936 177.76 46.0539 178.086 46.1188C178.413 46.1838 178.751 46.1504 179.059 46.023C179.366 45.8957 179.629 45.68 179.814 45.4032C179.999 45.1264 180.097 44.8011 180.097 44.4682C180.097 44.0219 179.92 43.5938 179.604 43.2782C179.289 42.9626 178.861 42.7852 178.414 42.7852Z" fill="#3C3AB8"/>
<path d="M187.89 44.8217H177.884L184.354 29.371C184.393 29.2883 184.463 29.2239 184.548 29.1913C184.634 29.1586 184.728 29.1603 184.812 29.196C184.897 29.2317 184.964 29.2986 185 29.3826C185.035 29.4667 185.037 29.5613 185.005 29.6468L178.952 44.1146H187.89C187.984 44.1146 188.074 44.1518 188.14 44.2181C188.206 44.2845 188.244 44.3744 188.244 44.4682C188.244 44.5619 188.206 44.6519 188.14 44.7182C188.074 44.7845 187.984 44.8217 187.89 44.8217Z" fill="#3C3AB8"/>
<path d="M181.519 164.142H171.994L169.597 152.036H179.122L181.519 164.142Z" fill="#C7C7C7"/>
<path d="M181.519 164.496H172.001C171.919 164.496 171.839 164.467 171.775 164.414C171.712 164.361 171.669 164.287 171.655 164.206L169.257 152.107C169.248 152.055 169.249 152.002 169.261 151.951C169.273 151.9 169.296 151.852 169.328 151.81C169.363 151.771 169.405 151.739 169.453 151.717C169.5 151.695 169.552 151.684 169.604 151.683H179.129C179.21 151.683 179.289 151.711 179.353 151.763C179.416 151.814 179.459 151.886 179.475 151.966L181.901 164.072C181.911 164.122 181.911 164.174 181.898 164.225C181.886 164.275 181.863 164.322 181.83 164.362C181.793 164.408 181.746 164.444 181.691 164.468C181.637 164.491 181.578 164.501 181.519 164.496ZM172.284 163.789H181.088L178.832 152.39H170.028L172.284 163.789Z" fill="#6766AE"/>
<path d="M196.057 124.515H155.058V156.053H196.057V124.515Z" fill="white"/>
<path d="M196.043 156.406H155.03C154.937 156.404 154.848 156.367 154.782 156.301C154.716 156.235 154.678 156.146 154.677 156.053V124.515C154.677 124.421 154.714 124.331 154.78 124.265C154.846 124.199 154.936 124.161 155.03 124.161H196.043C196.137 124.161 196.227 124.199 196.293 124.265C196.36 124.331 196.397 124.421 196.397 124.515V156.053C196.397 156.146 196.36 156.236 196.293 156.303C196.227 156.369 196.137 156.406 196.043 156.406ZM155.398 155.699H195.704V124.869H155.398V155.699Z" fill="#6766AE"/>
<path d="M193.597 126.99H157.526V153.571H193.597V126.99Z" fill="#5E81F4"/>
<path d="M193.59 153.924H157.526C157.433 153.924 157.343 153.887 157.276 153.821C157.21 153.755 157.173 153.665 157.173 153.571V126.99C157.173 126.896 157.21 126.806 157.276 126.74C157.343 126.674 157.433 126.636 157.526 126.636H193.59C193.684 126.636 193.773 126.674 193.84 126.74C193.906 126.806 193.943 126.896 193.943 126.99V153.571C193.943 153.665 193.906 153.755 193.84 153.821C193.773 153.887 193.684 153.924 193.59 153.924ZM157.88 153.217H193.236V127.344H157.859L157.88 153.217Z" fill="#6766AE"/>
<path d="M193.597 126.99H157.526V131.416H193.597V126.99Z" fill="#5E81F4"/>
<path d="M193.59 131.777H157.526C157.433 131.777 157.343 131.74 157.276 131.674C157.21 131.607 157.173 131.517 157.173 131.424V126.99C157.173 126.896 157.21 126.806 157.276 126.74C157.343 126.674 157.433 126.636 157.526 126.636H193.59C193.684 126.636 193.773 126.674 193.84 126.74C193.906 126.806 193.943 126.896 193.943 126.99V131.395C193.947 131.444 193.941 131.493 193.925 131.539C193.909 131.586 193.884 131.628 193.85 131.664C193.817 131.7 193.777 131.728 193.732 131.748C193.687 131.767 193.639 131.777 193.59 131.777ZM157.88 131.07H193.236V127.344H157.859L157.88 131.07Z" fill="#6766AE"/>
<path d="M185.238 153.91C185.145 153.91 185.055 153.873 184.988 153.806C184.922 153.74 184.885 153.65 184.885 153.556V131.848C184.885 131.754 184.922 131.664 184.988 131.598C185.055 131.531 185.145 131.494 185.238 131.494C185.332 131.494 185.422 131.531 185.488 131.598C185.555 131.664 185.592 131.754 185.592 131.848V153.556C185.592 153.65 185.555 153.74 185.488 153.806C185.422 153.873 185.332 153.91 185.238 153.91Z" fill="#6766AE"/>
<path d="M164.555 162.749H131.462V164.425H164.555V162.749Z" fill="white"/>
<path d="M164.548 164.779H131.461C131.368 164.779 131.278 164.742 131.211 164.675C131.145 164.609 131.108 164.519 131.108 164.425V162.749C131.108 162.656 131.145 162.566 131.211 162.499C131.278 162.433 131.368 162.396 131.461 162.396H164.548C164.642 162.396 164.732 162.433 164.798 162.499C164.864 162.566 164.901 162.656 164.901 162.749V164.425C164.901 164.519 164.864 164.609 164.798 164.675C164.732 164.742 164.642 164.779 164.548 164.779ZM131.815 164.072H164.223V163.103H131.815V164.072Z" fill="#6766AE"/>
<path d="M181.031 163.379H166.379V164.425H181.505L181.031 163.379Z" fill="#C7C7C7"/>
<path d="M181.512 164.779H166.379C166.285 164.779 166.196 164.742 166.129 164.675C166.063 164.609 166.026 164.519 166.026 164.425V163.379C166.027 163.286 166.065 163.197 166.131 163.131C166.197 163.065 166.286 163.027 166.379 163.025H181.031C181.098 163.026 181.163 163.046 181.219 163.083C181.275 163.119 181.32 163.17 181.349 163.23L181.83 164.284C181.855 164.337 181.866 164.396 181.863 164.455C181.859 164.513 181.84 164.57 181.808 164.62C181.776 164.669 181.733 164.71 181.681 164.738C181.629 164.766 181.571 164.78 181.512 164.779ZM166.733 164.072H180.96L180.805 163.732H166.733V164.072Z" fill="#6766AE"/>
<path d="M185.896 161.802C185.896 161.802 188.802 162.757 189.029 164.242H177.064C177.064 164.242 177.828 161.272 179.313 160.529C180.798 159.787 185.352 160.876 185.896 161.802Z" fill="#6766AE"/>
<path d="M189.029 164.63H177.064C177.011 164.63 176.958 164.618 176.911 164.595C176.863 164.572 176.821 164.538 176.788 164.496C176.754 164.453 176.731 164.402 176.72 164.348C176.709 164.294 176.71 164.238 176.725 164.185C176.725 164.057 177.545 161.052 179.15 160.253C180.649 159.504 185.189 160.38 186.115 161.54C186.73 161.759 189.149 162.693 189.375 164.22C189.383 164.27 189.38 164.321 189.366 164.37C189.353 164.418 189.329 164.464 189.297 164.503C189.265 164.543 189.224 164.575 189.177 164.597C189.131 164.619 189.08 164.63 189.029 164.63ZM177.538 163.923H188.527C188.01 163.067 186.405 162.389 185.783 162.176C185.699 162.15 185.628 162.091 185.585 162.014C185.161 161.264 180.868 160.182 179.468 160.882C178.535 161.335 177.849 162.947 177.538 163.923Z" fill="#6766AE"/>
<path d="M192.423 170.91L199.084 250.108C199.122 250.32 199.239 250.51 199.412 250.639C199.585 250.768 199.801 250.827 200.015 250.802C200.23 250.778 200.427 250.673 200.566 250.508C200.706 250.344 200.778 250.132 200.767 249.917L196.234 170.896L192.423 170.91Z" fill="#3C3AB8"/>
<path d="M199.933 251.218C199.681 251.223 199.435 251.152 199.225 251.013C199.086 250.915 198.967 250.791 198.877 250.646C198.787 250.501 198.728 250.34 198.702 250.171L192.048 170.973C192.043 170.924 192.049 170.875 192.064 170.829C192.079 170.782 192.103 170.739 192.136 170.703C192.169 170.666 192.208 170.637 192.253 170.616C192.297 170.596 192.346 170.585 192.395 170.584H196.206C196.297 170.584 196.385 170.619 196.451 170.683C196.517 170.746 196.556 170.832 196.56 170.924L201.092 249.938C201.119 250.226 201.041 250.514 200.872 250.749C200.703 250.984 200.455 251.151 200.173 251.218C200.093 251.226 200.013 251.226 199.933 251.218ZM192.812 171.263L199.438 250.093C199.448 250.161 199.473 250.226 199.511 250.283C199.549 250.341 199.599 250.389 199.657 250.426C199.713 250.465 199.776 250.491 199.844 250.504C199.911 250.516 199.98 250.513 200.046 250.496C200.161 250.468 200.262 250.398 200.33 250.301C200.397 250.203 200.427 250.084 200.413 249.966L195.902 171.263H192.812Z" fill="#3C3AB8"/>
<path d="M237.134 170.909L243.817 250.383C243.835 250.499 243.877 250.611 243.94 250.71C244.003 250.81 244.086 250.895 244.183 250.961C244.281 251.028 244.391 251.073 244.506 251.095C244.622 251.118 244.741 251.116 244.856 251.09C245.056 251.04 245.231 250.92 245.35 250.751C245.468 250.582 245.521 250.376 245.5 250.171L240.953 170.888L237.134 170.909Z" fill="#3C3AB8"/>
<path d="M244.665 251.486C244.372 251.484 244.089 251.376 243.868 251.183C243.648 250.989 243.504 250.723 243.463 250.432L236.781 170.945C236.775 170.844 236.808 170.746 236.873 170.669C236.907 170.633 236.947 170.605 236.992 170.586C237.037 170.566 237.085 170.556 237.134 170.556H240.953C241.044 170.557 241.131 170.593 241.196 170.656C241.262 170.719 241.301 170.804 241.306 170.895L245.853 250.192C245.88 250.48 245.801 250.768 245.633 251.004C245.464 251.239 245.216 251.405 244.934 251.472C244.845 251.487 244.755 251.492 244.665 251.486ZM237.523 171.263L244.17 250.355C244.182 250.422 244.207 250.487 244.245 250.544C244.283 250.601 244.332 250.65 244.39 250.687C244.466 250.742 244.557 250.774 244.652 250.777C244.746 250.781 244.839 250.757 244.92 250.708C245.001 250.659 245.065 250.587 245.105 250.502C245.146 250.416 245.16 250.321 245.146 250.227L240.592 171.263H237.523Z" fill="#3C3AB8"/>
<path d="M120.982 170.909L117.447 249.4C117.427 249.606 117.482 249.812 117.601 249.981C117.721 250.149 117.897 250.27 118.097 250.32C118.212 250.348 118.331 250.353 118.448 250.332C118.564 250.311 118.675 250.266 118.773 250.199C118.87 250.132 118.953 250.045 119.014 249.944C119.076 249.843 119.115 249.73 119.129 249.612L124.786 170.881L120.982 170.909Z" fill="#6766AE"/>
<path d="M118.33 250.73C118.233 250.728 118.135 250.717 118.04 250.694C117.758 250.622 117.51 250.451 117.342 250.213C117.173 249.974 117.095 249.684 117.121 249.393L120.657 170.902C120.66 170.812 120.698 170.727 120.763 170.664C120.827 170.601 120.913 170.565 121.003 170.563H124.808C124.856 170.563 124.903 170.573 124.947 170.592C124.991 170.612 125.03 170.64 125.062 170.676C125.097 170.711 125.124 170.753 125.141 170.8C125.158 170.846 125.165 170.896 125.161 170.945L119.504 249.669C119.484 249.841 119.428 250.007 119.339 250.156C119.25 250.305 119.13 250.433 118.988 250.532C118.793 250.661 118.564 250.73 118.33 250.73ZM121.321 171.263L117.828 249.443C117.814 249.567 117.844 249.693 117.914 249.796C117.984 249.9 118.089 249.975 118.21 250.008C118.276 250.024 118.345 250.025 118.412 250.013C118.479 250.001 118.542 249.975 118.599 249.938C118.656 249.897 118.704 249.846 118.741 249.786C118.777 249.727 118.801 249.66 118.811 249.591L124.404 171.263H121.321Z" fill="#6766AE"/>
<path d="M79.7778 170.909L76.2422 249.16C76.2207 249.367 76.2747 249.574 76.3943 249.745C76.5138 249.915 76.6908 250.036 76.8927 250.086C77.0074 250.114 77.1266 250.117 77.2427 250.096C77.3588 250.075 77.4691 250.029 77.5664 249.963C77.6638 249.896 77.7461 249.81 77.8078 249.709C77.8696 249.608 77.9096 249.496 77.9251 249.379L83.5326 170.888L79.7778 170.909Z" fill="#6766AE"/>
<path d="M77.1331 250.461C77.0353 250.463 76.9377 250.451 76.8432 250.425C76.5619 250.353 76.3153 250.183 76.147 249.946C75.9788 249.71 75.8998 249.421 75.924 249.131L79.4596 170.895C79.4632 170.804 79.5021 170.717 79.568 170.654C79.6339 170.591 79.7218 170.556 79.8131 170.556H83.6033C83.6522 170.556 83.7007 170.566 83.7455 170.585C83.7904 170.605 83.8307 170.633 83.8639 170.669C83.8971 170.705 83.9225 170.747 83.9386 170.793C83.9546 170.84 83.9608 170.889 83.9569 170.938L78.3494 249.428C78.3293 249.6 78.2728 249.764 78.1838 249.912C78.0948 250.06 77.9752 250.186 77.8332 250.284C77.6238 250.414 77.3792 250.476 77.1331 250.461ZM80.1172 171.263L76.6311 249.181C76.6153 249.305 76.6454 249.43 76.7158 249.533C76.7862 249.636 76.8919 249.709 77.0129 249.739C77.0785 249.757 77.1472 249.761 77.2143 249.75C77.2814 249.739 77.3454 249.714 77.4018 249.676C77.4582 249.635 77.506 249.583 77.5424 249.524C77.5788 249.464 77.6031 249.398 77.614 249.329L83.1932 171.263H80.1172Z" fill="#6766AE"/>
<path d="M245.832 166.525H77.2888V173.328H245.832V166.525Z" fill="white"/>
<path d="M245.832 173.682H77.2889C77.1957 173.68 77.1068 173.642 77.0409 173.576C76.9749 173.51 76.9371 173.421 76.9353 173.328V166.525C76.9353 166.432 76.9726 166.342 77.0389 166.275C77.1052 166.209 77.1951 166.172 77.2889 166.172H245.832C245.926 166.172 246.016 166.209 246.082 166.275C246.148 166.342 246.186 166.432 246.186 166.525V173.328C246.186 173.422 246.148 173.512 246.082 173.578C246.016 173.644 245.926 173.682 245.832 173.682ZM77.6424 172.974H245.479V166.879H77.6424V172.974Z" fill="#3C3AB8"/>
<path d="M245.832 166.525H77.2888V168.859H245.832V166.525Z" fill="#3C3AB8"/>
<path d="M245.832 169.213H77.2889C77.1957 169.211 77.1068 169.173 77.0409 169.107C76.9749 169.041 76.9371 168.952 76.9353 168.859V166.525C76.9353 166.432 76.9726 166.342 77.0389 166.275C77.1052 166.209 77.1951 166.172 77.2889 166.172H245.832C245.926 166.172 246.016 166.209 246.082 166.275C246.148 166.342 246.186 166.432 246.186 166.525V168.873C246.182 168.964 246.143 169.051 246.077 169.114C246.011 169.177 245.923 169.213 245.832 169.213ZM77.6424 168.505H245.479V166.879H77.6424V168.505Z" fill="#3C3AB8"/>
<path d="M245.839 166.525H186.561V173.328H245.839V166.525Z" fill="#3C3AB8"/>
<path d="M245.832 173.682H186.561C186.467 173.682 186.377 173.644 186.311 173.578C186.245 173.512 186.207 173.422 186.207 173.328V166.525C186.207 166.432 186.245 166.342 186.311 166.275C186.377 166.209 186.467 166.172 186.561 166.172H245.832C245.926 166.172 246.016 166.209 246.082 166.275C246.148 166.342 246.186 166.432 246.186 166.525V173.328C246.186 173.422 246.148 173.512 246.082 173.578C246.016 173.644 245.926 173.682 245.832 173.682ZM186.914 172.974H245.478V166.879H186.914V172.974Z" fill="#3C3AB8"/>
<path d="M247.946 164.262H75.1816V166.858H247.946V164.262Z" fill="white"/>
<path d="M247.946 167.211H75.1817C75.0879 167.211 74.998 167.174 74.9317 167.108C74.8654 167.041 74.8281 166.951 74.8281 166.858V164.262C74.8281 164.169 74.8654 164.079 74.9317 164.012C74.998 163.946 75.0879 163.909 75.1817 163.909H247.946C248.04 163.909 248.13 163.946 248.196 164.012C248.263 164.079 248.3 164.169 248.3 164.262V166.858C248.298 166.951 248.26 167.04 248.194 167.106C248.129 167.172 248.04 167.209 247.946 167.211ZM75.5352 166.504H247.593V164.63H75.5352V166.504Z" fill="#3C3AB8"/>
<path d="M247.946 164.262H189.029V166.858H247.946V164.262Z" fill="#3C3AB8"/>
<path d="M247.947 167.211H189.029C188.935 167.211 188.845 167.174 188.779 167.108C188.713 167.041 188.675 166.951 188.675 166.858V164.262C188.675 164.169 188.713 164.079 188.779 164.012C188.845 163.946 188.935 163.909 189.029 163.909H247.947C248.04 163.909 248.13 163.946 248.197 164.012C248.263 164.079 248.3 164.169 248.3 164.262V166.858C248.298 166.951 248.26 167.04 248.195 167.106C248.129 167.172 248.04 167.209 247.947 167.211ZM189.382 166.504H247.593V164.63H189.382V166.504Z" fill="#3C3AB8"/>
<path d="M216.833 151.626H208.255V164.298H216.833V151.626Z" fill="white"/>
<path d="M216.826 164.63H208.255C208.162 164.63 208.072 164.593 208.005 164.527C207.939 164.46 207.902 164.371 207.902 164.277V151.626C207.902 151.532 207.939 151.443 208.005 151.376C208.072 151.31 208.162 151.273 208.255 151.273H216.826C216.92 151.273 217.009 151.31 217.076 151.376C217.142 151.443 217.179 151.532 217.179 151.626V164.291C217.176 164.382 217.137 164.469 217.071 164.532C217.005 164.595 216.917 164.63 216.826 164.63ZM208.609 163.923H216.472V151.98H208.609V163.923Z" fill="#6766AE"/>
<path d="M216.444 162.565H215.546C215.358 162.565 215.178 162.491 215.046 162.358C214.913 162.226 214.839 162.046 214.839 161.858C214.839 161.671 214.913 161.491 215.046 161.358C215.178 161.226 215.358 161.151 215.546 161.151H216.444C216.799 161.151 217.139 161.011 217.391 160.76C217.643 160.51 217.785 160.17 217.787 159.815V156.739C217.785 156.384 217.643 156.044 217.391 155.793C217.139 155.543 216.799 155.402 216.444 155.402H215.291C215.104 155.402 214.924 155.328 214.791 155.195C214.658 155.063 214.584 154.883 214.584 154.695C214.584 154.508 214.658 154.328 214.791 154.195C214.924 154.063 215.104 153.988 215.291 153.988H216.444C217.174 153.988 217.874 154.278 218.391 154.793C218.908 155.309 219.2 156.009 219.202 156.739V159.815C219.2 160.545 218.908 161.245 218.391 161.76C217.874 162.276 217.174 162.565 216.444 162.565Z" fill="white"/>
<path d="M216.444 162.919H215.546C215.264 162.919 214.995 162.807 214.796 162.608C214.597 162.409 214.485 162.14 214.485 161.858C214.485 161.577 214.597 161.307 214.796 161.108C214.995 160.909 215.264 160.798 215.546 160.798H216.444C216.705 160.798 216.956 160.694 217.141 160.51C217.327 160.326 217.432 160.076 217.434 159.815V156.739C217.432 156.477 217.327 156.227 217.141 156.043C216.956 155.859 216.705 155.756 216.444 155.756H215.291C215.01 155.756 214.74 155.644 214.541 155.445C214.342 155.246 214.23 154.977 214.23 154.695C214.23 154.414 214.342 154.144 214.541 153.945C214.74 153.746 215.01 153.635 215.291 153.635H216.444C217.268 153.635 218.058 153.961 218.641 154.543C219.225 155.125 219.553 155.915 219.555 156.739V159.815C219.553 160.639 219.225 161.428 218.641 162.01C218.058 162.592 217.268 162.919 216.444 162.919ZM215.546 161.505C215.453 161.507 215.364 161.544 215.298 161.61C215.232 161.676 215.194 161.765 215.192 161.858C215.192 161.952 215.229 162.042 215.296 162.108C215.362 162.175 215.452 162.212 215.546 162.212H216.444C217.08 162.212 217.691 161.96 218.141 161.51C218.592 161.061 218.846 160.451 218.848 159.815V156.739C218.846 156.102 218.592 155.493 218.141 155.043C217.691 154.594 217.08 154.342 216.444 154.342H215.291C215.197 154.342 215.107 154.379 215.041 154.445C214.975 154.511 214.938 154.601 214.938 154.695C214.939 154.788 214.977 154.877 215.043 154.943C215.109 155.009 215.198 155.047 215.291 155.049H216.444C216.893 155.049 217.323 155.227 217.641 155.543C217.959 155.86 218.139 156.29 218.141 156.739V159.815C218.139 160.264 217.959 160.693 217.641 161.01C217.323 161.327 216.893 161.505 216.444 161.505H215.546Z" fill="#6766AE"/>
<path d="M129.673 97.9976C129.673 97.9976 131.617 104.015 131.617 105.182C131.603 106.027 131.537 106.87 131.419 107.706L133.137 110.365C133.197 110.448 133.237 110.542 133.257 110.641C133.276 110.74 133.274 110.843 133.251 110.941C133.228 111.04 133.183 111.132 133.121 111.212C133.059 111.292 132.98 111.358 132.89 111.405L130.281 112.953C130.281 112.953 129.892 119.169 129.503 119.947C129.114 120.725 122.509 120.534 122.509 120.534L120.388 124.614L109.314 120.336L112.228 112.373L111.648 100.352C111.648 100.352 118.401 94.2994 129.673 97.9976Z" fill="white"/>
<path d="M120.381 124.967C120.339 124.977 120.295 124.977 120.254 124.967L109.18 120.725C109.093 120.691 109.023 120.625 108.985 120.54C108.946 120.456 108.943 120.359 108.975 120.272L111.832 112.303L111.252 100.331C111.248 100.278 111.256 100.226 111.276 100.177C111.295 100.128 111.326 100.084 111.365 100.048C111.436 99.9846 118.436 93.9316 129.75 97.644C129.803 97.6608 129.852 97.6901 129.891 97.7295C129.931 97.7689 129.96 97.8172 129.977 97.8703C130.182 98.4926 131.942 103.98 131.942 105.168C131.93 105.986 131.868 106.803 131.759 107.614L133.406 110.16C133.487 110.284 133.541 110.422 133.567 110.567C133.592 110.712 133.588 110.861 133.554 111.005C133.521 111.148 133.458 111.283 133.371 111.402C133.283 111.52 133.173 111.62 133.046 111.695L130.564 113.151C130.479 114.53 130.146 119.332 129.764 120.095C129.383 120.859 125.741 120.958 122.693 120.88L120.657 124.762C120.632 124.817 120.594 124.865 120.545 124.901C120.497 124.936 120.441 124.959 120.381 124.967ZM109.774 120.131L120.225 124.168L122.219 120.364C122.251 120.306 122.298 120.258 122.356 120.226C122.413 120.193 122.479 120.177 122.545 120.18C125.451 120.265 128.838 120.131 129.227 119.763C129.467 119.268 129.8 115.308 129.934 112.932C129.938 112.874 129.956 112.818 129.987 112.768C130.018 112.719 130.06 112.678 130.111 112.649L132.749 111.094C132.794 111.069 132.834 111.035 132.864 110.993C132.895 110.952 132.916 110.904 132.925 110.853C132.938 110.803 132.94 110.751 132.932 110.699C132.923 110.648 132.904 110.6 132.876 110.556L131.158 107.897C131.134 107.863 131.117 107.823 131.109 107.782C131.1 107.741 131.1 107.698 131.108 107.657C131.22 106.836 131.283 106.01 131.299 105.182C131.299 104.305 129.998 100.055 129.425 98.2734C119.419 95.0701 112.97 99.6876 112.001 100.487L112.574 112.352C112.582 112.399 112.582 112.447 112.574 112.494L109.774 120.131Z" fill="#6766AE"/>
<path d="M124.624 117.776C124.574 117.775 124.525 117.763 124.48 117.743C124.435 117.722 124.395 117.692 124.362 117.655C123.42 116.528 122.957 115.075 123.075 113.611L121.823 113.3C121.732 113.276 121.653 113.218 121.605 113.137C121.556 113.057 121.54 112.96 121.562 112.868C121.573 112.823 121.594 112.781 121.621 112.744C121.649 112.706 121.684 112.675 121.725 112.651C121.765 112.628 121.809 112.612 121.855 112.606C121.901 112.599 121.948 112.602 121.993 112.614L123.549 113.003C123.634 113.024 123.708 113.077 123.756 113.15C123.804 113.223 123.824 113.312 123.81 113.399C123.725 114.071 123.777 114.753 123.963 115.405C124.149 116.056 124.465 116.663 124.892 117.189C124.937 117.24 124.967 117.303 124.976 117.371C124.986 117.438 124.977 117.507 124.948 117.569C124.92 117.631 124.874 117.684 124.816 117.72C124.759 117.757 124.692 117.776 124.624 117.776Z" fill="#6766AE"/>
<path d="M123.69 109.149C123.644 109.154 123.597 109.151 123.552 109.138C123.507 109.125 123.465 109.104 123.428 109.075C123.391 109.046 123.36 109.01 123.337 108.97C123.315 108.929 123.3 108.884 123.294 108.838C123.289 108.791 123.292 108.744 123.305 108.699C123.318 108.654 123.339 108.612 123.368 108.575C123.397 108.538 123.433 108.508 123.473 108.485C123.514 108.462 123.559 108.447 123.605 108.442L134.523 105.74C134.569 105.729 134.616 105.726 134.663 105.733C134.709 105.74 134.754 105.756 134.794 105.781C134.834 105.805 134.869 105.837 134.897 105.875C134.924 105.913 134.944 105.956 134.955 106.002C134.966 106.047 134.969 106.094 134.962 106.14C134.955 106.186 134.938 106.23 134.914 106.27C134.89 106.309 134.857 106.344 134.82 106.37C134.782 106.397 134.739 106.416 134.693 106.426L123.754 109.135L123.69 109.149Z" fill="#6766AE"/>
<path d="M132.572 109.474C132.486 109.473 132.404 109.441 132.34 109.384C132.276 109.327 132.235 109.248 132.225 109.163C132.218 109.117 132.221 109.07 132.232 109.025C132.244 108.98 132.265 108.937 132.293 108.901C132.321 108.864 132.357 108.833 132.398 108.81C132.438 108.787 132.483 108.772 132.529 108.767C132.783 108.753 133.03 108.682 133.253 108.56C133.476 108.438 133.668 108.267 133.816 108.06C134.095 107.52 134.17 106.897 134.028 106.306L131.801 106.207C131.754 106.206 131.709 106.195 131.667 106.175C131.624 106.156 131.586 106.128 131.555 106.094C131.523 106.06 131.499 106.02 131.483 105.976C131.467 105.933 131.46 105.886 131.461 105.84C131.463 105.793 131.474 105.748 131.494 105.705C131.513 105.663 131.541 105.625 131.575 105.594C131.609 105.562 131.649 105.538 131.693 105.522C131.736 105.506 131.783 105.498 131.829 105.5L134.325 105.606C134.398 105.61 134.469 105.636 134.526 105.682C134.583 105.728 134.624 105.79 134.644 105.861C134.909 106.718 134.826 107.646 134.41 108.442C134.208 108.735 133.942 108.978 133.632 109.154C133.322 109.329 132.977 109.431 132.621 109.453L132.572 109.474Z" fill="#6766AE"/>
<path d="M116.845 93.5285C116.845 93.5285 112.603 92.1638 110.439 97.9976C108.275 103.831 112.185 111.398 112.185 112.373C112.185 113.349 115.488 114.12 118.012 114.12C119.402 114.174 120.77 113.763 121.901 112.953C121.901 112.953 120.925 109.071 121.703 108.293C122.481 107.515 124.426 109.262 124.426 109.262C125.036 109.165 125.626 108.97 126.172 108.682C126.759 108.293 129.673 106.738 128.697 104.991C127.721 103.244 125.783 101.689 127.339 100.522C128.895 99.3552 132.996 99.1572 133.166 95.466C133.335 91.7749 131.044 90.997 128.697 91.3859C126.349 91.7749 127.148 88.0837 122.679 88.6706C118.21 89.2575 116.067 91.7961 116.845 93.5285Z" fill="#3C3AB8"/>
<path d="M118.012 114.474C115.891 114.474 111.832 113.837 111.832 112.352C111.719 111.87 111.57 111.398 111.386 110.938C110.418 108.201 108.402 102.509 110.106 97.8562C111.853 93.0972 115.056 92.9063 116.357 93.0618C116.295 92.4934 116.419 91.9201 116.711 91.4284C117.609 89.8374 119.815 88.6706 122.63 88.3029C125.444 87.9352 126.363 89.1868 127.063 90.099C127.587 90.8061 127.898 91.1455 128.64 91.0253C129.277 90.8739 129.939 90.8651 130.58 90.9996C131.22 91.134 131.823 91.4085 132.345 91.8032C133.215 92.581 133.611 93.8114 133.519 95.4731C133.371 98.3511 131.08 99.2563 129.234 99.9846C128.643 100.185 128.078 100.455 127.551 100.791C126.752 101.385 127.092 102.028 128.124 103.464C128.441 103.894 128.736 104.34 129.008 104.8C130.047 106.674 127.537 108.237 126.589 108.824L126.37 108.958C125.782 109.278 125.144 109.493 124.482 109.594C124.43 109.604 124.375 109.601 124.324 109.586C124.273 109.571 124.225 109.545 124.185 109.51C123.478 108.873 122.304 108.173 121.958 108.527C121.611 108.88 121.795 111.079 122.241 112.854C122.258 112.918 122.257 112.985 122.237 113.048C122.217 113.111 122.179 113.166 122.128 113.208C120.938 114.082 119.487 114.528 118.012 114.474ZM115.742 93.7336C114.434 93.7336 112.157 94.3347 110.792 98.1178C109.173 102.53 111.132 108.06 112.072 110.719C112.305 111.247 112.469 111.803 112.56 112.373C112.56 112.897 115.212 113.788 118.033 113.788C119.265 113.819 120.478 113.484 121.519 112.826C121.244 111.673 120.685 108.859 121.477 108.06C122.269 107.261 124.037 108.47 124.546 108.909C125.041 108.816 125.518 108.646 125.96 108.406L126.201 108.258C127.445 107.487 129.029 106.335 128.378 105.182C128.138 104.751 127.827 104.326 127.537 103.909C126.667 102.7 125.677 101.335 127.113 100.26C127.689 99.8818 128.311 99.5799 128.965 99.3623C130.705 98.6552 132.671 97.8986 132.798 95.4731C132.876 94.0589 132.558 92.9911 131.858 92.3689C131.414 92.0472 130.906 91.8261 130.369 91.721C129.832 91.616 129.278 91.6296 128.746 91.7607C127.544 91.9587 127.007 91.2445 126.483 90.5586C125.776 89.6606 125.069 88.7272 122.707 89.0383C119.653 89.4414 117.92 90.7354 117.319 91.8102C117.166 92.0429 117.071 92.3089 117.043 92.5859C117.015 92.8628 117.054 93.1425 117.156 93.4013C117.184 93.4637 117.194 93.5328 117.184 93.6004C117.174 93.668 117.144 93.7314 117.1 93.7831C117.053 93.8329 116.993 93.8685 116.927 93.886C116.86 93.9035 116.791 93.9021 116.725 93.8821C116.406 93.788 116.075 93.738 115.742 93.7336Z" fill="#6766AE"/>
<path d="M116.845 108.767C116.823 108.762 116.801 108.752 116.782 108.739C116.763 108.726 116.746 108.709 116.734 108.689C116.721 108.669 116.713 108.647 116.709 108.624C116.705 108.601 116.706 108.578 116.711 108.555C116.868 107.896 117.105 107.26 117.418 106.66C117.439 106.619 117.476 106.588 117.519 106.574C117.563 106.559 117.61 106.562 117.651 106.582C117.673 106.592 117.693 106.606 117.709 106.623C117.725 106.641 117.737 106.662 117.744 106.685C117.751 106.707 117.754 106.731 117.751 106.755C117.749 106.779 117.741 106.802 117.729 106.822C117.421 107.392 117.183 107.998 117.022 108.625C117.013 108.665 116.99 108.701 116.958 108.727C116.926 108.752 116.886 108.766 116.845 108.767Z" fill="white"/>
<path d="M118.203 105.804C118.167 105.803 118.132 105.791 118.104 105.769C118.084 105.756 118.067 105.739 118.054 105.72C118.041 105.7 118.032 105.678 118.028 105.655C118.024 105.631 118.025 105.607 118.031 105.584C118.037 105.561 118.047 105.54 118.062 105.521C118.998 104.172 120.311 103.129 121.838 102.523C125.974 100.869 127.353 99.6947 127.367 99.6947C127.383 99.6778 127.402 99.6643 127.424 99.6551C127.445 99.6459 127.468 99.6411 127.491 99.6411C127.514 99.6411 127.537 99.6459 127.559 99.6551C127.58 99.6643 127.599 99.6778 127.615 99.6947C127.647 99.7277 127.665 99.7722 127.665 99.8184C127.665 99.8647 127.647 99.9091 127.615 99.9422C127.558 99.9917 126.201 101.166 121.958 102.848C120.494 103.427 119.234 104.426 118.337 105.719C118.323 105.743 118.303 105.762 118.28 105.777C118.257 105.792 118.23 105.801 118.203 105.804Z" fill="white"/>
<path d="M120.042 107.091C119.999 107.091 119.958 107.076 119.926 107.048C119.894 107.02 119.873 106.981 119.867 106.939C119.861 106.897 119.87 106.854 119.893 106.819C119.916 106.783 119.951 106.757 119.992 106.745C122.113 106.087 127 102.912 127.063 102.877C127.103 102.853 127.15 102.845 127.195 102.856C127.24 102.867 127.279 102.894 127.304 102.933C127.317 102.952 127.326 102.973 127.33 102.996C127.335 103.018 127.335 103.042 127.33 103.064C127.326 103.087 127.317 103.108 127.304 103.127C127.29 103.146 127.274 103.161 127.254 103.174C127.056 103.308 122.304 106.412 120.112 107.084L120.042 107.091Z" fill="white"/>
<path d="M132.296 240.865C132.296 240.865 142.372 247.229 144.14 247.229C145.908 247.229 146.792 248.82 145.908 248.997C145.024 249.174 139.544 249.35 135.831 249.527C132.119 249.704 129.644 249.35 127.523 249.35C125.401 249.35 122.926 249.527 121.866 248.997C120.805 248.467 122.573 242.456 122.573 241.395C122.573 240.335 131.058 240.158 132.296 240.865Z" fill="#6766AE"/>
<path d="M133.738 249.931C132.324 249.931 131.073 249.867 129.955 249.803C128.541 249.718 127.438 249.704 126.229 249.718C124.376 249.754 122.63 249.782 121.703 249.315C120.777 248.849 121.194 246.565 121.866 243.368C122.024 242.719 122.142 242.06 122.219 241.396C122.228 241.269 122.271 241.147 122.343 241.042C122.415 240.938 122.514 240.855 122.63 240.802C124.136 239.925 131.313 239.896 132.473 240.561C136.489 243.1 142.91 246.869 144.133 246.869C145.491 246.869 146.516 247.738 146.594 248.516C146.61 248.611 146.606 248.709 146.583 248.802C146.56 248.896 146.518 248.984 146.46 249.061C146.402 249.138 146.328 249.202 146.244 249.249C146.16 249.297 146.068 249.326 145.972 249.337C145.3 249.471 142.337 249.598 139.205 249.733L135.839 249.874C135.096 249.916 134.396 249.931 133.738 249.931ZM127.523 248.997C128.287 248.997 129.114 249.047 129.991 249.096C131.927 249.233 133.87 249.262 135.81 249.181L139.183 249.032C142.153 248.905 145.222 248.778 145.837 248.651C145.901 248.615 145.908 248.516 145.795 248.34C145.599 248.091 145.347 247.892 145.059 247.761C144.771 247.629 144.456 247.568 144.14 247.583C142.323 247.583 133.187 241.848 132.119 241.169C131.051 240.49 123.634 240.752 122.927 241.452C122.847 242.145 122.724 242.832 122.559 243.51C122.283 244.839 121.541 248.375 122.021 248.686C122.792 249.068 124.532 249.04 126.215 249.011L127.523 248.997Z" fill="#6766AE"/>
<path d="M145.293 247.491C141.383 248.778 135.04 247.929 131.235 247.583C128.223 247.314 123.528 247.25 121.555 247.236C121.477 248.141 121.555 248.834 121.866 248.997C122.927 249.527 125.402 249.351 127.523 249.351C129.644 249.351 132.119 249.704 135.832 249.527C139.544 249.351 145.024 249.174 145.908 248.997C146.545 248.87 146.241 247.951 145.293 247.491Z" fill="white"/>
<path d="M133.738 249.93C132.324 249.93 131.072 249.867 129.955 249.803C128.541 249.718 127.438 249.704 126.229 249.718C124.376 249.753 122.629 249.782 121.703 249.315C121.251 249.089 121.095 248.438 121.208 247.194C121.213 247.106 121.252 247.023 121.317 246.962C121.381 246.902 121.466 246.868 121.555 246.868C123.457 246.868 128.209 246.939 131.256 247.222L132.671 247.356C136.51 247.738 141.764 248.254 145.151 247.137C145.193 247.12 145.237 247.111 145.282 247.111C145.327 247.111 145.372 247.12 145.413 247.137C145.734 247.254 146.015 247.462 146.22 247.736C146.424 248.01 146.545 248.337 146.566 248.679C146.549 248.839 146.478 248.988 146.365 249.103C146.252 249.217 146.103 249.29 145.943 249.308C145.272 249.442 142.309 249.57 139.176 249.704L135.81 249.845C135.096 249.916 134.396 249.93 133.738 249.93ZM127.523 248.997C128.286 248.997 129.114 249.046 129.991 249.096C131.927 249.233 133.87 249.261 135.81 249.181L139.183 249.032C142.153 248.905 145.222 248.778 145.837 248.65C145.929 248.544 145.767 248.155 145.264 247.873C141.729 248.976 136.489 248.452 132.635 248.078L131.221 247.936C128.392 247.682 123.98 247.611 121.908 247.59C121.859 248.551 122.042 248.686 122.042 248.686C122.813 249.068 124.553 249.039 126.236 249.011L127.523 248.997Z" fill="#6766AE"/>
<path d="M145.18 191.303L132.303 237.033L133.958 241.176C132.771 242.899 130.978 244.111 128.937 244.57C126.665 245.013 124.358 245.25 122.043 245.278C122.043 245.278 121.159 240.858 121.689 240.328C122.22 239.797 122.396 237.676 122.396 237.676L128.265 191.876L145.18 191.303Z" fill="#8D92E9"/>
<path d="M122.043 245.631C121.96 245.632 121.879 245.603 121.816 245.55C121.752 245.497 121.71 245.423 121.696 245.341C121.35 243.623 120.862 240.653 121.435 240.073C121.739 239.776 121.972 238.468 122.043 237.64L127.919 191.833C127.929 191.749 127.969 191.672 128.031 191.615C128.093 191.557 128.174 191.525 128.258 191.522L145.166 190.949C145.222 190.948 145.277 190.961 145.327 190.985C145.378 191.01 145.422 191.046 145.456 191.09C145.49 191.134 145.513 191.184 145.524 191.238C145.535 191.292 145.534 191.348 145.519 191.402L132.678 237.018L134.29 241.042C134.314 241.091 134.327 241.146 134.327 241.201C134.327 241.256 134.314 241.31 134.29 241.36C133.05 243.161 131.172 244.425 129.036 244.896C126.732 245.35 124.391 245.597 122.043 245.631ZM128.584 192.208L122.743 237.704C122.743 238.065 122.531 239.967 121.937 240.533C121.739 240.851 121.972 242.979 122.333 244.874C124.525 244.828 126.708 244.592 128.859 244.167C130.746 243.734 132.415 242.637 133.562 241.077L131.978 237.11C131.949 237.037 131.949 236.957 131.978 236.884L144.706 191.628L128.584 192.208Z" fill="#6766AE"/>
<path d="M152.407 241.19C152.407 241.19 158.594 246.317 161.422 247.201C164.251 248.085 167.256 248.968 167.256 249.852C167.256 250.736 160.539 251.62 155.412 251.09C150.285 250.559 142.507 248.261 140.739 248.261C138.971 248.261 139.325 243.665 139.325 242.958C139.325 242.251 147.959 236.594 152.407 241.19Z" fill="#6766AE"/>
<path d="M158.799 251.606C157.656 251.612 156.514 251.557 155.377 251.444C152.147 251.008 148.943 250.395 145.781 249.605C144.125 249.162 142.44 248.831 140.739 248.615C140.565 248.616 140.393 248.581 140.233 248.511C140.074 248.442 139.931 248.34 139.813 248.212C138.95 247.321 138.908 245.108 138.964 243.262C138.964 243.121 138.964 243.008 138.964 242.937C138.964 242.23 141.467 240.766 143.264 240.038C145.562 239.119 149.826 238.001 152.64 240.915C152.979 241.19 158.856 246.013 161.522 246.847L161.995 246.989C165.474 248.078 167.603 248.792 167.603 249.817C167.602 249.907 167.581 249.995 167.542 250.076C167.503 250.157 167.446 250.228 167.377 250.284C166.542 251.076 162.611 251.606 158.799 251.606ZM139.707 243.022C139.707 243.093 139.707 243.192 139.707 243.305C139.707 244.203 139.587 246.932 140.357 247.724C140.409 247.783 140.474 247.83 140.546 247.862C140.618 247.894 140.696 247.909 140.774 247.908C142.53 248.117 144.267 248.455 145.972 248.919C149.107 249.698 152.282 250.307 155.483 250.744C160.383 251.246 166.302 250.433 166.931 249.81C166.768 249.23 163.685 248.269 161.826 247.689L161.352 247.54C158.523 246.649 152.47 241.678 152.216 241.466C150.879 240.052 149.012 239.55 146.651 239.889C143.214 240.356 140.018 242.513 139.678 243.022H139.707Z" fill="#6766AE"/>
<path d="M167.256 249.853C167.256 249.535 166.867 249.216 166.238 248.905C161.176 249.582 156.044 249.544 150.992 248.792C147.117 248.239 143.273 247.491 139.473 246.551C139.657 247.498 140.025 248.262 140.739 248.262C142.507 248.262 150.285 250.56 155.412 251.09C160.539 251.621 167.256 250.737 167.256 249.853Z" fill="white"/>
<path d="M158.799 251.606C157.656 251.611 156.514 251.557 155.377 251.443C152.146 251.008 148.943 250.394 145.781 249.605C144.125 249.161 142.44 248.83 140.739 248.615C139.926 248.615 139.381 247.943 139.127 246.614C139.115 246.556 139.119 246.496 139.138 246.441C139.156 246.385 139.189 246.335 139.233 246.295C139.276 246.255 139.328 246.226 139.384 246.21C139.441 246.194 139.501 246.192 139.558 246.204C141.68 246.727 145.922 247.717 151.042 248.445C156.058 249.195 161.155 249.231 166.181 248.551C166.254 248.537 166.329 248.55 166.394 248.587C166.959 248.869 167.61 249.294 167.61 249.852C167.609 249.942 167.588 250.03 167.549 250.111C167.51 250.192 167.453 250.263 167.384 250.319C166.542 251.076 162.61 251.606 158.799 251.606ZM139.954 247.031C140.145 247.618 140.407 247.908 140.739 247.908C142.494 248.116 144.231 248.454 145.936 248.919C149.072 249.698 152.246 250.307 155.447 250.743C160.326 251.245 166.224 250.439 166.889 249.817C166.889 249.739 166.712 249.548 166.181 249.265C161.124 249.941 155.996 249.9 150.95 249.145C146.233 248.473 142.217 247.582 139.954 247.031Z" fill="#6766AE"/>
<path d="M122.205 174.791C122.205 174.791 133.173 175.159 142.189 176.206C151.205 177.252 166.344 180.894 166.712 183.178C167.079 185.462 151.438 236.092 151.438 237.329C151.438 238.567 152.852 239.804 153.206 240.511C153.429 241.013 153.549 241.554 153.559 242.102C151.369 243.268 149.109 244.298 146.792 245.186C144.441 246.028 141.97 246.489 139.473 246.55C138.766 246.55 138.271 243.319 138.802 241.021C139.332 238.722 140.216 232.889 140.393 232.358C140.569 231.828 149.783 192.837 149.783 192.837C149.783 192.837 126.278 195.927 108.233 195.446C92.4071 195.036 91.4454 193.254 90.5544 189.542C89.6634 185.829 91.4383 174.968 91.4383 174.968L122.205 174.791Z" fill="#5E81F4"/>
<path d="M139.473 246.904C139.364 246.9 139.258 246.87 139.162 246.817C139.066 246.764 138.984 246.69 138.922 246.6C138.215 245.744 138.01 242.888 138.455 240.943C138.752 239.663 139.162 237.266 139.487 235.336C139.799 233.525 139.975 232.507 140.06 232.245C140.23 231.68 146.127 206.789 149.324 193.255C145.788 193.693 124.631 196.239 108.225 195.8C92.2586 195.383 91.1626 193.608 90.215 189.62C89.324 185.886 91.0211 175.357 91.0919 174.912C91.1067 174.829 91.1503 174.754 91.2149 174.699C91.2795 174.645 91.3611 174.615 91.4454 174.615L122.205 174.438C122.311 174.438 133.286 174.82 142.217 175.852C150.504 176.828 166.627 180.413 167.044 183.107C167.263 184.522 162.674 200.163 156.649 220.472C154.167 228.844 151.82 236.736 151.777 237.323C151.777 238.03 152.4 238.836 152.902 239.444C153.128 239.712 153.329 240.001 153.503 240.307C153.753 240.858 153.888 241.455 153.899 242.06C153.898 242.125 153.88 242.188 153.846 242.242C153.813 242.297 153.765 242.342 153.708 242.371C151.504 243.545 149.23 244.582 146.898 245.476C144.515 246.344 142.009 246.827 139.473 246.904ZM149.783 192.456C149.833 192.455 149.882 192.466 149.927 192.487C149.973 192.507 150.013 192.538 150.045 192.576C150.084 192.618 150.113 192.669 150.127 192.724C150.142 192.78 150.143 192.838 150.13 192.894C149.182 196.882 140.937 231.913 140.725 232.443C140.661 232.649 140.421 234.063 140.188 235.428C139.855 237.365 139.48 239.776 139.148 241.085C138.639 243.284 139.148 245.964 139.516 246.19C141.956 246.116 144.371 245.663 146.672 244.846C148.903 243.988 151.08 242.997 153.192 241.876C153.164 241.454 153.061 241.039 152.887 240.653C152.73 240.404 152.553 240.167 152.357 239.946C151.791 239.239 151.084 238.32 151.084 237.351C151.084 236.884 152.499 232.055 155.985 220.309C160.227 206.096 166.592 184.621 166.358 183.249C166.068 181.375 151.905 177.74 142.146 176.588C133.343 175.555 122.531 175.173 122.198 175.173L91.7495 175.35C91.4737 177.111 90.1302 186.226 90.9009 189.493C91.6717 192.76 92.1455 194.711 108.24 195.15C126.052 195.631 149.5 192.576 149.741 192.54L149.783 192.456Z" fill="#6766AE"/>
<path d="M119.023 188.05C118.954 188.049 118.887 188.028 118.829 187.989C118.772 187.95 118.728 187.895 118.701 187.831C118.675 187.767 118.668 187.697 118.681 187.629C118.694 187.561 118.727 187.498 118.776 187.449C119.195 187.007 119.58 186.534 119.928 186.035C119.954 185.997 119.988 185.964 120.027 185.939C120.066 185.914 120.109 185.898 120.154 185.89C120.2 185.882 120.246 185.883 120.291 185.893C120.336 185.904 120.379 185.923 120.416 185.95C120.454 185.977 120.487 186.011 120.512 186.05C120.537 186.09 120.554 186.134 120.562 186.18C120.57 186.226 120.568 186.273 120.558 186.318C120.548 186.364 120.528 186.407 120.501 186.445C120.133 186.978 119.721 187.479 119.271 187.944C119.205 188.009 119.116 188.047 119.023 188.05Z" fill="#6766AE"/>
<path d="M121.519 184.514C121.46 184.515 121.402 184.5 121.35 184.472C121.268 184.426 121.208 184.349 121.183 184.259C121.158 184.169 121.169 184.073 121.215 183.991C122.528 181.604 123.693 179.139 124.701 176.609C124.718 176.565 124.744 176.526 124.776 176.493C124.809 176.459 124.847 176.433 124.89 176.414C124.933 176.396 124.979 176.386 125.025 176.386C125.072 176.385 125.118 176.393 125.161 176.411C125.204 176.426 125.244 176.451 125.278 176.482C125.312 176.514 125.339 176.552 125.358 176.594C125.376 176.637 125.386 176.682 125.386 176.729C125.386 176.775 125.377 176.821 125.359 176.863C124.338 179.426 123.157 181.922 121.823 184.338C121.792 184.391 121.748 184.435 121.695 184.466C121.641 184.497 121.581 184.514 121.519 184.514Z" fill="#6766AE"/>
<path d="M113.72 186.636C113.648 186.635 113.579 186.613 113.519 186.573C113.46 186.533 113.414 186.476 113.388 186.409C113.355 186.322 113.359 186.226 113.397 186.141C113.436 186.056 113.506 185.99 113.593 185.957C117.341 184.46 120.502 181.788 122.601 178.341C122.622 178.3 122.651 178.263 122.687 178.233C122.722 178.203 122.763 178.181 122.807 178.167C122.851 178.153 122.898 178.148 122.944 178.152C122.99 178.157 123.034 178.17 123.075 178.192C123.117 178.214 123.154 178.244 123.184 178.28C123.214 178.316 123.236 178.357 123.25 178.402C123.264 178.447 123.269 178.494 123.264 178.54C123.26 178.587 123.246 178.632 123.224 178.673C121.063 182.285 117.765 185.078 113.847 186.614C113.806 186.628 113.763 186.635 113.72 186.636Z" fill="#6766AE"/>
<path d="M162.151 189.493C162.745 189.259 163.332 189.019 163.883 188.785Z" fill="white"/>
<path d="M162.151 189.846C162.057 189.863 161.96 189.842 161.882 189.787C161.804 189.733 161.75 189.65 161.733 189.556C161.717 189.462 161.738 189.366 161.792 189.287C161.846 189.209 161.93 189.156 162.023 189.139C162.639 188.905 163.218 188.665 163.735 188.432C163.821 188.393 163.919 188.391 164.007 188.424C164.095 188.458 164.166 188.526 164.205 188.612C164.243 188.698 164.246 188.796 164.212 188.885C164.178 188.973 164.111 189.044 164.025 189.082C163.494 189.323 162.907 189.563 162.278 189.789C162.241 189.819 162.197 189.838 162.151 189.846Z" fill="#6766AE"/>
<path d="M149.917 192.837C153.303 192.173 156.648 191.318 159.937 190.277Z" fill="white"/>
<path d="M149.918 193.191C149.835 193.192 149.754 193.163 149.691 193.11C149.627 193.057 149.585 192.982 149.571 192.901C149.561 192.856 149.56 192.809 149.568 192.763C149.577 192.718 149.595 192.674 149.62 192.636C149.646 192.598 149.68 192.565 149.719 192.54C149.758 192.515 149.801 192.498 149.847 192.491C153.219 191.831 156.55 190.978 159.824 189.938C159.869 189.921 159.917 189.914 159.964 189.916C160.012 189.919 160.058 189.931 160.101 189.951C160.144 189.972 160.182 190.001 160.213 190.037C160.244 190.073 160.268 190.115 160.283 190.16C160.298 190.205 160.303 190.253 160.299 190.3C160.295 190.348 160.281 190.394 160.259 190.436C160.237 190.478 160.206 190.515 160.169 190.544C160.132 190.574 160.089 190.597 160.044 190.61C156.741 191.658 153.382 192.518 149.981 193.184L149.918 193.191Z" fill="#6766AE"/>
<path d="M145.081 148.819L149.324 153.132L176.414 158.902C176.414 158.902 182.339 157.035 183.782 157.799C185.649 158.789 187.65 160.444 187.848 161.038C188.046 161.632 186.434 162.219 185.875 161.823L185.281 161.427C185.281 161.427 182.198 162.53 180.812 162.53C179.426 162.53 175.756 162.197 175.756 162.197C175.756 162.197 148.73 163.407 148.136 163.407C147.542 163.407 137.486 157.75 137.486 157.75L145.081 148.819Z" fill="white"/>
<path d="M148.157 163.76C147.563 163.76 141.121 160.182 137.338 158.053C137.292 158.028 137.252 157.993 137.222 157.951C137.191 157.908 137.171 157.86 137.161 157.808C137.152 157.757 137.154 157.704 137.167 157.653C137.181 157.603 137.205 157.556 137.239 157.516L144.812 148.592C144.843 148.554 144.882 148.524 144.926 148.502C144.97 148.48 145.018 148.467 145.067 148.465C145.166 148.465 145.262 148.503 145.335 148.571L149.521 152.814L176.392 158.541C177.326 158.251 182.473 156.717 183.937 157.495C185.641 158.393 187.911 160.125 188.18 160.931C188.232 161.104 188.223 161.29 188.154 161.457C188.086 161.624 187.963 161.763 187.805 161.851C187.508 162.08 187.155 162.227 186.782 162.276C186.409 162.324 186.03 162.273 185.684 162.126L185.238 161.829C183.813 162.358 182.329 162.714 180.819 162.89C179.44 162.89 175.869 162.572 175.727 162.558C174.688 162.6 148.751 163.76 148.157 163.76ZM138.059 157.643C141.828 159.765 147.619 162.94 148.199 163.053C148.63 163.053 166.422 162.261 175.777 161.844C175.862 161.844 179.496 162.176 180.847 162.176C182.198 162.176 185.168 161.108 185.196 161.094C185.249 161.077 185.305 161.071 185.36 161.079C185.415 161.086 185.468 161.106 185.514 161.137L186.101 161.532C186.264 161.586 186.436 161.607 186.607 161.593C186.778 161.58 186.945 161.533 187.098 161.455C187.416 161.327 187.536 161.172 187.544 161.137C187.416 160.755 185.641 159.164 183.654 158.11C182.7 157.608 178.796 158.534 176.583 159.234C176.525 159.248 176.464 159.248 176.406 159.234L149.316 153.464C149.247 153.45 149.183 153.416 149.132 153.365L145.13 149.342L138.059 157.643Z" fill="#6766AE"/>
<path d="M183.471 159.779L185.125 159.56C185.125 159.56 188.661 161.207 188.972 161.321C189.283 161.434 189.41 162.353 187.65 162.091L185.896 161.823L184.355 161.759L183.032 162.091" fill="white"/>
<path d="M188.215 162.509C188.009 162.507 187.804 162.491 187.6 162.459L185.839 162.197L184.39 162.134L183.117 162.452C183.072 162.464 183.026 162.466 182.98 162.46C182.935 162.453 182.891 162.437 182.851 162.414C182.812 162.39 182.778 162.359 182.75 162.322C182.723 162.284 182.703 162.242 182.693 162.197C182.681 162.152 182.678 162.105 182.685 162.059C182.691 162.013 182.707 161.969 182.73 161.929C182.754 161.889 182.785 161.854 182.823 161.826C182.86 161.798 182.902 161.778 182.947 161.766L184.27 161.434H184.369L185.91 161.497L187.706 161.766C188.611 161.9 188.795 161.681 188.802 161.667C188.534 161.575 185.705 160.253 185.069 159.949L183.52 160.161C183.474 160.168 183.427 160.165 183.382 160.154C183.337 160.142 183.294 160.121 183.257 160.093C183.22 160.065 183.19 160.029 183.167 159.989C183.144 159.948 183.129 159.903 183.124 159.857C183.117 159.811 183.12 159.764 183.131 159.719C183.143 159.673 183.163 159.631 183.192 159.594C183.22 159.557 183.256 159.526 183.296 159.503C183.337 159.48 183.382 159.466 183.428 159.461L185.076 159.235C185.144 159.225 185.213 159.237 185.274 159.27C186.624 159.899 188.859 160.939 189.085 161.009C189.24 161.074 189.366 161.191 189.443 161.34C189.519 161.488 189.54 161.66 189.502 161.823C189.446 162.021 189.212 162.509 188.215 162.509Z" fill="#6766AE"/>
<path d="M127.226 160.387C127.226 160.387 129.779 158.881 130.38 158.881C130.981 158.881 135.329 161.285 135.329 161.285C135.329 161.285 138.038 160.684 137.889 161.434C137.741 162.183 137.585 162.636 136.687 162.636H135.782C135.782 162.636 133.074 162.791 131.122 162.94C129.17 163.088 118.797 162.94 118.797 162.94L121.625 158.428L127.226 160.387Z" fill="white"/>
<path d="M127.049 163.329C123.513 163.329 119.08 163.265 118.804 163.265C118.74 163.265 118.678 163.248 118.623 163.216C118.568 163.184 118.523 163.137 118.493 163.081C118.462 163.026 118.446 162.964 118.446 162.901C118.446 162.838 118.462 162.776 118.493 162.721L121.321 158.209C121.365 158.142 121.429 158.091 121.505 158.066C121.581 158.04 121.663 158.041 121.739 158.068L127.141 159.97C127.89 159.532 129.729 158.499 130.337 158.499C130.945 158.499 133.958 160.118 135.351 160.882C136.213 160.698 137.585 160.5 138.038 160.939C138.107 161.008 138.158 161.093 138.187 161.187C138.215 161.281 138.22 161.38 138.2 161.476C138.066 162.141 137.903 162.961 136.652 162.961H135.747C135.747 162.961 133.045 163.117 131.115 163.265C130.493 163.315 128.866 163.329 127.049 163.329ZM119.44 162.565C121.724 162.565 129.467 162.685 131.101 162.565C133.038 162.417 135.74 162.268 135.768 162.261H136.694C137.281 162.261 137.401 162.105 137.529 161.427C136.816 161.363 136.098 161.425 135.407 161.61C135.323 161.627 135.236 161.615 135.16 161.575C133.625 160.665 132.022 159.875 130.365 159.213C129.323 159.583 128.326 160.072 127.396 160.67C127.3 160.709 127.194 160.709 127.099 160.67L121.795 158.831L119.44 162.565Z" fill="#6766AE"/>
<path d="M134.927 161.688H134.877L131.745 161.236C131.699 161.229 131.654 161.213 131.615 161.189C131.575 161.165 131.54 161.133 131.513 161.096C131.485 161.058 131.465 161.016 131.454 160.971C131.443 160.926 131.441 160.879 131.448 160.833C131.463 160.741 131.514 160.658 131.589 160.603C131.664 160.547 131.758 160.523 131.851 160.536L134.976 160.988C135.068 161.004 135.151 161.055 135.206 161.13C135.261 161.205 135.286 161.299 135.273 161.391C135.26 161.474 135.218 161.549 135.154 161.603C135.091 161.657 135.01 161.688 134.927 161.688Z" fill="#6766AE"/>
<path d="M175.537 158.089L149.903 151.902L145.908 147.581C145.611 147.15 145.314 146.662 145.024 146.167L134.453 129.069C133.745 128.185 121.498 123.249 118.67 121.29C117.074 120.09 115.216 119.287 113.248 118.949C111.28 118.611 109.26 118.747 107.356 119.346C107.356 119.346 93.5666 125.887 91.622 127.124C89.6774 128.362 88.4399 143.742 88.4399 146.393C88.4399 149.045 90.3845 171.595 90.9149 176.015C91.4452 180.434 108.416 183.44 114.073 181.848C119.73 180.257 125.21 176.191 125.21 174.777C125.21 173.363 124.68 164.778 125.034 162.48C125.387 160.182 128.569 150.459 128.569 150.459L144.572 164.51L175.777 162.183L175.537 158.089Z" fill="white"/>
<path d="M109.923 182.647C104.266 182.647 96.2398 181.092 92.5274 178.617C91.3324 177.818 90.6677 176.962 90.5616 176.071C90.0808 172.026 88.0867 149.144 88.0867 146.407C88.0867 144.463 89.2039 128.255 91.4314 126.841C93.3689 125.604 106.642 119.31 107.2 119.063C109.162 118.443 111.243 118.299 113.272 118.642C115.301 118.985 117.219 119.805 118.868 121.036C120.282 122.026 124.362 123.864 127.933 125.476C132.388 127.492 134.375 128.425 134.729 128.871L145.335 145.997C145.647 146.542 145.937 147.015 146.212 147.411L150.109 151.612L175.657 157.757C175.731 157.775 175.797 157.816 175.845 157.875C175.894 157.933 175.922 158.006 175.926 158.082L176.145 162.19C176.151 162.283 176.12 162.374 176.059 162.444C175.998 162.515 175.912 162.558 175.82 162.565L144.614 164.892C144.567 164.896 144.52 164.891 144.475 164.876C144.43 164.862 144.388 164.838 144.353 164.807L128.753 151.11C128.096 153.139 125.699 160.621 125.395 162.558C125.14 164.213 125.395 169.318 125.494 172.373C125.536 173.519 125.578 174.424 125.578 174.805C125.578 176.545 119.681 180.675 114.18 182.216C112.786 182.546 111.354 182.691 109.923 182.647ZM111.245 119.134C109.961 119.144 108.686 119.335 107.455 119.699C107.37 119.742 93.7154 126.226 91.8132 127.435C90.1515 128.496 88.7938 143.063 88.7938 146.407C88.7938 148.903 90.7101 171.355 91.2687 175.986C91.3465 176.658 91.9051 177.344 92.9234 178.03C97.5268 181.099 109.583 182.761 113.975 181.523C119.596 179.946 124.857 175.937 124.857 174.791C124.857 174.424 124.815 173.526 124.772 172.394C124.631 169.113 124.419 164.156 124.68 162.438C125.034 160.14 128.103 150.763 128.216 150.36C128.235 150.305 128.267 150.255 128.311 150.215C128.354 150.176 128.406 150.148 128.463 150.134C128.519 150.117 128.578 150.114 128.635 150.127C128.692 150.139 128.745 150.166 128.789 150.205L144.678 164.163L175.388 161.872L175.204 158.337L149.812 152.227C149.744 152.209 149.683 152.172 149.635 152.121L145.632 147.8C145.314 147.348 145.01 146.853 144.699 146.301L134.156 129.274C133.859 128.941 130.557 127.442 127.636 126.12C124.044 124.494 119.964 122.648 118.444 121.616C116.364 120.053 113.846 119.184 111.245 119.134Z" fill="#6766AE"/>
<path d="M128.569 150.827H128.527L122.707 150.162C122.661 150.158 122.616 150.144 122.575 150.122C122.534 150.1 122.498 150.07 122.469 150.034C122.44 149.997 122.419 149.955 122.406 149.911C122.394 149.866 122.39 149.819 122.396 149.773C122.407 149.68 122.454 149.596 122.526 149.537C122.599 149.479 122.692 149.452 122.785 149.462L128.605 150.12C128.698 150.12 128.788 150.157 128.855 150.223C128.921 150.289 128.958 150.379 128.958 150.473C128.958 150.567 128.921 150.657 128.855 150.723C128.788 150.789 128.698 150.827 128.605 150.827H128.569Z" fill="#6766AE"/>
<path d="M128.569 150.827C128.508 150.826 128.448 150.812 128.393 150.784L119.554 145.835C119.472 145.787 119.412 145.709 119.386 145.618C119.361 145.527 119.373 145.429 119.419 145.347C119.467 145.266 119.543 145.208 119.633 145.183C119.722 145.158 119.818 145.168 119.9 145.212L128.739 150.162C128.821 150.208 128.881 150.285 128.906 150.375C128.931 150.465 128.919 150.561 128.874 150.643C128.844 150.698 128.8 150.744 128.747 150.777C128.693 150.809 128.632 150.826 128.569 150.827Z" fill="#6766AE"/>
<path d="M105.531 119.233C105.531 119.233 107.469 116.439 108.643 116.241C111.752 116.053 114.867 116.518 117.786 117.606C120.904 118.964 123.627 123.638 123.627 123.638C123.627 123.638 120.317 122.082 114.477 121.884C108.636 121.686 103.75 121.227 103.75 121.227L105.531 119.233Z" fill="white"/>
<path d="M123.641 123.991C123.592 124.001 123.541 124.001 123.492 123.991C123.457 123.991 120.169 122.464 114.484 122.273C108.798 122.082 103.785 121.615 103.735 121.615C103.67 121.609 103.607 121.584 103.554 121.545C103.502 121.505 103.462 121.451 103.438 121.389C103.413 121.329 103.406 121.263 103.417 121.199C103.429 121.135 103.458 121.076 103.502 121.028L105.27 119.048C105.524 118.674 107.342 116.135 108.593 115.93C111.775 115.728 114.962 116.21 117.941 117.344C121.123 118.758 123.832 123.326 123.945 123.524C123.983 123.589 124 123.665 123.992 123.74C123.985 123.815 123.953 123.886 123.902 123.942C123.824 123.99 123.731 124.008 123.641 123.991ZM104.499 120.936C106.055 121.071 110.015 121.382 114.505 121.53C117.31 121.593 120.091 122.069 122.757 122.945C121.809 121.53 119.815 118.9 117.659 117.959C114.804 116.891 111.756 116.433 108.713 116.616C107.971 116.743 106.557 118.426 105.835 119.444L104.499 120.936Z" fill="#6766AE"/>
<path d="M147.64 251.84C147.276 251.84 146.926 251.7 146.662 251.448C146.399 251.197 146.243 250.853 146.226 250.489L143.617 194.782C143.609 194.596 143.637 194.411 143.7 194.236C143.764 194.061 143.861 193.9 143.986 193.763C144.239 193.486 144.592 193.321 144.968 193.304C145.343 193.287 145.709 193.42 145.986 193.673C146.263 193.926 146.429 194.279 146.445 194.655L149.062 250.355C149.079 250.729 148.947 251.094 148.695 251.371C148.444 251.648 148.092 251.814 147.718 251.833L147.64 251.84Z" fill="#6766AE"/>
<path d="M124.107 251.84C123.743 251.84 123.393 251.7 123.129 251.448C122.866 251.197 122.709 250.853 122.693 250.489L120.084 194.782C120.075 194.596 120.104 194.411 120.167 194.236C120.23 194.061 120.328 193.9 120.453 193.763C120.578 193.626 120.73 193.515 120.898 193.436C121.066 193.357 121.249 193.312 121.434 193.304C121.62 193.296 121.806 193.324 121.98 193.387C122.155 193.451 122.316 193.548 122.453 193.673C122.59 193.799 122.701 193.95 122.78 194.118C122.859 194.287 122.904 194.469 122.912 194.655L125.529 250.355C125.537 250.541 125.509 250.726 125.446 250.901C125.382 251.076 125.285 251.237 125.16 251.374C125.034 251.511 124.883 251.622 124.715 251.701C124.546 251.78 124.364 251.824 124.178 251.833L124.107 251.84Z" fill="#6766AE"/>
<path d="M120.53 137.398H80.2236C78.4662 137.398 77.0415 138.823 77.0415 140.58V176.63C77.0415 178.387 78.4662 179.812 80.2236 179.812H120.53C122.287 179.812 123.712 178.387 123.712 176.63V140.58C123.712 138.823 122.287 137.398 120.53 137.398Z" fill="#C4C4C4"/>
<path d="M120.529 180.187H80.2234C79.2857 180.187 78.3864 179.814 77.7233 179.151C77.0602 178.488 76.6877 177.589 76.6877 176.651V140.588C76.6877 139.65 77.0602 138.751 77.7233 138.088C78.3864 137.425 79.2857 137.052 80.2234 137.052H120.529C121.467 137.052 122.366 137.425 123.03 138.088C123.693 138.751 124.065 139.65 124.065 140.588V176.651C124.065 177.589 123.693 178.488 123.03 179.151C122.366 179.814 121.467 180.187 120.529 180.187ZM80.2234 137.759C79.4732 137.759 78.7538 138.057 78.2233 138.588C77.6929 139.118 77.3949 139.838 77.3949 140.588V176.651C77.3949 177.401 77.6929 178.121 78.2233 178.651C78.7538 179.182 79.4732 179.48 80.2234 179.48H120.529C121.28 179.48 121.999 179.182 122.53 178.651C123.06 178.121 123.358 177.401 123.358 176.651V140.588C123.358 139.838 123.06 139.118 122.53 138.588C121.999 138.057 121.28 137.759 120.529 137.759H80.2234Z" fill="#6766AE"/>
<path d="M146.205 198.006H80.9941C79.2546 198.006 77.8403 196.818 77.8403 195.355C77.8403 193.891 79.2546 192.703 80.9941 192.703H146.205C147.945 192.703 149.359 193.891 149.359 195.355C149.373 196.818 147.959 198.006 146.205 198.006Z" fill="#C4C4C4"/>
<path d="M146.205 198.36H80.9941C79.0566 198.36 77.4585 197.009 77.4585 195.354C77.4585 193.7 79.0283 192.349 80.9941 192.349H146.205C148.143 192.349 149.741 193.693 149.741 195.354C149.741 197.016 148.143 198.36 146.205 198.36ZM80.9941 193.056C79.4526 193.056 78.1656 194.089 78.1656 195.354C78.1656 196.62 79.4243 197.653 80.9941 197.653H146.205C147.754 197.653 149.034 196.62 149.034 195.354C149.034 194.089 147.782 193.056 146.205 193.056H80.9941Z" fill="#6766AE"/>
<path d="M113.218 251.84H113.147C112.773 251.821 112.422 251.655 112.17 251.378C111.918 251.101 111.786 250.736 111.804 250.362L114.42 194.661V151.753C114.42 151.378 114.569 151.018 114.834 150.753C115.099 150.488 115.459 150.339 115.834 150.339C116.209 150.339 116.569 150.488 116.834 150.753C117.099 151.018 117.248 151.378 117.248 151.753V194.718L114.639 250.489C114.623 250.854 114.465 251.199 114.2 251.451C113.935 251.702 113.583 251.842 113.218 251.84Z" fill="#6766AE"/>
<path d="M81.404 251.84H81.3404C81.1546 251.831 80.9722 251.787 80.8038 251.708C80.6353 251.629 80.484 251.518 80.3586 251.381C80.2331 251.243 80.136 251.083 80.0727 250.908C80.0094 250.733 79.9812 250.547 79.9898 250.362L82.6061 194.661V151.753C82.6061 151.378 82.7551 151.018 83.0204 150.753C83.2856 150.488 83.6453 150.339 84.0204 150.339C84.3955 150.339 84.7552 150.488 85.0204 150.753C85.2856 151.018 85.4346 151.378 85.4346 151.753V194.718L82.8183 250.489C82.8019 250.853 82.6457 251.196 82.3822 251.448C82.1187 251.7 81.7683 251.84 81.404 251.84Z" fill="#6766AE"/>
</svg>
