<svg viewBox="0 0 92 54" fill="none" xmlns="http://www.w3.org/2000/svg">
<path d="M9.536 13.4L8.8 17.688H19.008L18.208 22.168H8L7.232 26.52H18.4L17.6 31H0.672L4.576 8.92H21.184L20.384 13.4H9.536ZM45.7898 8.92L41.8858 31H34.3658L29.0858 16.376L26.5258 31H20.7658L24.6698 8.92H31.8378L37.3738 24.184L40.0298 8.92H45.7898ZM67.362 13.4H60.226L57.122 31H51.362L54.466 13.4H47.266L48.098 8.92H68.194L67.362 13.4Z" fill="#131336"/>
<path d="M19.152 32.992C19.6 32.992 19.896 33.264 19.896 33.696C19.896 34.128 19.6 34.4 19.152 34.4C18.704 34.4 18.408 34.128 18.408 33.696C18.408 33.264 18.704 32.992 19.152 32.992ZM19.872 39H18.432V34.728H19.872V39ZM25.7447 33.48V36.576C25.7447 36.856 25.7447 37.024 25.7207 37.352C25.6567 38.28 25.0007 39.112 23.2967 39.112C21.5927 39.112 20.9367 38.28 20.8727 37.352C20.8487 37.024 20.8487 36.856 20.8487 36.576V33.48H22.2887V36.84C22.2887 36.992 22.2887 37.072 22.2967 37.168C22.3367 37.744 22.6647 38.056 23.2967 38.056C23.9287 38.056 24.2567 37.744 24.2967 37.168C24.3047 37.072 24.3047 36.992 24.3047 36.84V33.48H25.7447ZM31.1829 34.6H29.3909V39H27.9509V34.6H26.1589V33.48H31.1829V34.6ZM37.4278 33.12V39H35.9878V38.376L35.6678 38.848C35.4278 39.024 35.0118 39.112 34.5798 39.112C33.4198 39.112 32.6998 38.224 32.6998 36.96C32.6998 35.44 33.6278 34.616 34.7238 34.616C35.0758 34.616 35.4918 34.696 35.7078 34.824L35.9878 35.28V33.12H37.4278ZM35.0758 38.136C35.6038 38.136 35.9878 37.816 35.9878 36.92V36.736C35.9878 35.88 35.5478 35.592 35.1158 35.592C34.5558 35.592 34.1718 36.016 34.1718 36.888C34.1718 37.688 34.5718 38.136 35.0758 38.136ZM42.4754 36.808C42.4754 36.936 42.4674 37.08 42.4514 37.224H39.4754C39.5474 37.936 39.8594 38.136 40.2674 38.136C40.6754 38.136 40.9234 37.928 40.9794 37.6H42.3954C42.1474 38.568 41.3474 39.112 40.2514 39.112C39.0274 39.112 38.0514 38.384 38.0514 36.88C38.0514 35.632 38.9074 34.616 40.3314 34.616C41.7554 34.616 42.4754 35.704 42.4754 36.808ZM40.2594 35.592C39.8834 35.592 39.6194 35.816 39.5234 36.344H40.9714C40.8914 35.84 40.6434 35.592 40.2594 35.592ZM51.0223 33.48V39H49.5823V36.68C49.5823 36.2 49.5823 35.488 49.5983 34.928C49.5023 35.488 49.3423 36.192 49.2143 36.68L48.6063 39H47.1263L46.5103 36.68C46.3823 36.2 46.2223 35.488 46.1343 34.928C46.1503 35.488 46.1503 36.2 46.1503 36.68V39H44.7103V33.48H46.9583L47.8943 37.6L48.8303 33.48H51.0223ZM53.9411 34.616C55.3411 34.616 56.2371 35.488 56.2371 36.864C56.2371 38.232 55.3411 39.112 53.9411 39.112C52.5411 39.112 51.6451 38.232 51.6451 36.864C51.6451 35.488 52.5411 34.616 53.9411 34.616ZM53.9411 38.136C54.4531 38.136 54.7651 37.712 54.7651 36.864C54.7651 36.008 54.4531 35.592 53.9411 35.592C53.4291 35.592 53.1171 36.008 53.1171 36.864C53.1171 37.712 53.4291 38.136 53.9411 38.136ZM61.1577 35.776C61.1897 35.992 61.1977 36.24 61.1977 36.584V39H59.7577V36.824C59.7577 36.688 59.7577 36.456 59.7417 36.24C59.7097 35.832 59.4857 35.592 59.0537 35.592C58.6137 35.592 58.3017 36.016 58.3017 36.984V39H56.8617V34.728H58.3017V35.392L58.6857 34.864C58.9497 34.704 59.2537 34.616 59.6457 34.616C60.5257 34.616 61.0457 35.032 61.1577 35.776ZM63.7381 35.656V37.232C63.7381 37.376 63.7381 37.536 63.7461 37.648C63.7781 38.08 63.9141 38.176 64.5941 38.144V39.04C64.3141 39.088 64.0501 39.112 63.7461 39.112C62.6821 39.112 62.3621 38.784 62.3141 38.128C62.2981 37.88 62.2981 37.68 62.2981 37.44V35.656H61.6181V34.76H62.2981V33.656H63.7381V34.76H64.6821V35.656H63.7381ZM67.7973 34.616C67.9333 34.616 68.0213 34.624 68.1253 34.64V35.816C67.0453 35.744 66.6533 36.144 66.6533 37.432V39H65.2133V34.728H66.6533V35.592L66.9573 34.992C67.1893 34.736 67.5253 34.616 67.7973 34.616ZM72.7566 36.808C72.7566 36.936 72.7486 37.08 72.7326 37.224H69.7566C69.8286 37.936 70.1406 38.136 70.5486 38.136C70.9566 38.136 71.2046 37.928 71.2606 37.6H72.6766C72.4286 38.568 71.6286 39.112 70.5326 39.112C69.3086 39.112 68.3326 38.384 68.3326 36.88C68.3326 35.632 69.1886 34.616 70.6126 34.616C72.0366 34.616 72.7566 35.704 72.7566 36.808ZM70.5406 35.592C70.1646 35.592 69.9006 35.816 69.8046 36.344H71.2526C71.1726 35.84 70.9246 35.592 70.5406 35.592ZM77.6333 34.728V39H76.1933V38.28L75.8093 38.864C75.5453 39.024 75.2413 39.112 74.8493 39.112C73.9693 39.112 73.4333 38.616 73.3373 38.032C73.3053 37.816 73.2973 37.568 73.2973 37.224V34.728H74.7373V36.904C74.7373 37.04 74.7453 37.272 74.7693 37.488C74.8173 37.896 75.0093 38.136 75.4653 38.136C75.9213 38.136 76.1933 37.712 76.1933 37.144V34.728H77.6333ZM79.2145 32.992C79.6625 32.992 79.9585 33.264 79.9585 33.696C79.9585 34.128 79.6625 34.4 79.2145 34.4C78.7665 34.4 78.4705 34.128 78.4705 33.696C78.4705 33.264 78.7665 32.992 79.2145 32.992ZM79.9345 39H78.4945V34.728H79.9345V39ZM82.2072 33.12V37.464C82.2072 37.664 82.2072 37.752 82.2232 37.856C82.2472 38.024 82.3192 38.08 82.6952 38.064V39.04C82.4312 39.064 82.1752 39.08 81.8552 39.08C81.1912 39.08 80.8152 38.816 80.7832 38.248C80.7672 38.024 80.7672 37.808 80.7672 37.488V33.12H82.2072Z" fill="#5E81F4"/>
</svg>
