<svg xmlns="http://www.w3.org/2000/svg" viewBox="0 0 192 143" fill="none">
  <g clip-path="url(#clip0_80_158)">
    <path d="M63.9656 138.723C58.1047 138.723 52.2526 138.632 46.4092 138.448C38.0597 138.186 29.4259 137.915 21.4011 134.026C15.7874 131.305 10.8156 126.94 7.02338 121.403C4.52154 117.721 2.65835 113.639 1.51304 109.33C0.952765 107.257 0.54619 105.145 0.296666 103.012C-0.386665 97.2482 0.0975204 91.4052 1.72001 85.8351C2.50793 83.1698 3.58152 80.5985 4.92185 78.1667C10.774 67.5765 21.4479 60.4676 34.2067 58.6629C34.3123 58.6509 34.4186 58.6489 34.5245 58.6569C34.5819 58.6596 34.6391 58.6625 34.6974 58.6604L34.7725 58.6395C34.966 58.5808 35.1635 58.5365 35.3634 58.507C55.041 55.947 75.8429 61.1267 95.5189 73.4857C110.732 83.0428 130.895 88.1892 157.158 89.2189L157.531 89.236C164.842 89.603 171.914 92.237 177.983 96.8536C183.913 101.329 188.43 107.435 190.99 114.435C191.299 115.281 191.583 116.163 191.834 117.054C192.308 118.74 191.758 120.444 190.326 121.741V121.742L190.261 121.801C190.103 121.938 189.937 122.069 189.768 122.191L189.569 122.335C187.89 123.543 186.565 124.497 184.978 125.239C183.907 125.734 182.784 126.105 181.629 126.344C175.229 127.707 168.73 128.971 162.312 130.101C149.848 132.298 137.055 134.109 124.289 135.486C104.253 137.644 84.1164 138.724 63.9656 138.723ZM34.3753 59.032C34.3361 59.0317 34.297 59.034 34.2581 59.039C21.6186 60.8268 11.0457 67.8659 5.2516 78.3513C3.9245 80.759 2.86153 83.3048 2.08144 85.9438C0.473655 91.4642 -0.00601669 97.2552 0.671361 102.967C0.918693 105.082 1.3217 107.175 1.87705 109.23C3.01115 113.497 4.85628 117.541 7.33397 121.187C11.0891 126.671 16.01 130.992 21.5649 133.684C29.5176 137.538 38.1107 137.808 46.421 138.069C72.4004 138.881 98.4046 137.892 124.249 135.109C137.006 133.733 149.791 131.922 162.247 129.727C168.661 128.598 175.155 127.335 181.551 125.972C182.678 125.739 183.774 125.378 184.819 124.894C186.374 124.168 187.687 123.223 189.349 122.026L189.548 121.883C189.694 121.778 189.837 121.665 189.974 121.549L190.013 121.513C191.379 120.309 191.91 118.722 191.47 117.157C191.223 116.276 190.942 115.403 190.636 114.565C185.49 100.378 172.179 90.3513 157.513 89.6152L157.142 89.5982C145.145 89.1277 134.647 87.8246 125.049 85.614C113.592 82.9752 103.589 79.0029 95.3192 73.8076C75.7181 61.496 55.0031 56.3357 35.4115 58.8835C35.2293 58.9109 35.0494 58.9516 34.8731 59.0054L34.7378 59.0385C34.6599 59.0427 34.5835 59.0395 34.5072 59.0361C34.462 59.0341 34.4181 59.032 34.3753 59.032Z" fill="#F0F0F0"/>
    <path d="M190.137 121.656V121.657C189.985 121.79 189.824 121.917 189.658 122.037C186.889 124.032 184.997 125.431 181.59 126.158C175.177 127.524 168.74 128.777 162.28 129.914C149.677 132.135 137.007 133.929 124.269 135.297C98.4166 138.086 72.4034 139.076 46.4152 138.258C37.7606 137.987 29.4134 137.698 21.4831 133.855C15.6863 131.045 10.8158 126.606 7.17884 121.295C3.491 115.91 1.24812 109.538 0.484131 102.989C2.27985 102.201 4.18762 101.701 6.13757 101.509C12.9058 100.86 19.5666 103.354 25.7218 106.256C31.8789 109.156 37.9247 112.546 44.5911 113.885C54.4153 115.857 64.5564 113.175 73.975 109.741C83.3936 106.307 92.6651 102.067 102.599 100.771C115.922 99.03 129.291 102.714 142.227 106.362C156.007 110.248 169.788 114.134 183.569 118.021C185.538 118.575 187.581 119.169 189.117 120.528C189.498 120.865 189.84 121.243 190.137 121.656Z" fill="#E6E6E6"/>
    <path d="M190.137 121.656V121.657C189.985 121.79 189.824 121.917 189.658 122.037C187.923 123.286 186.532 124.303 184.899 125.066C179.283 125.623 173.66 126.104 168.029 126.511C153.536 127.557 139.015 128.113 124.465 128.179C94.9494 128.331 63.9169 129.261 38.0737 114.836C29.4746 110.036 17.0181 119.879 8.49925 114.615C6.04372 113.093 3.76197 111.304 1.69514 109.28C1.13694 107.216 0.732134 105.114 0.484084 102.99C-0.19976 97.2518 0.282211 91.4341 1.90074 85.8894C2.6838 83.2369 3.75215 80.6783 5.08681 78.259C9.04441 79.6883 12.8398 81.7459 16.4522 83.9249C23.0771 87.9166 29.519 92.4493 36.8966 94.7346C47.7715 98.1038 59.5367 96.2512 70.572 93.4648C81.6072 90.6784 92.5689 86.9657 103.942 86.6525C119.195 86.233 133.876 91.9482 148.075 97.5723C162.319 103.215 176.565 108.858 190.813 114.5C191.126 115.356 191.406 116.224 191.652 117.106C192.156 118.898 191.426 120.52 190.137 121.656Z" fill="#F2F2F2"/>
    <path d="M51.257 48.7865C49.1117 47.3313 49.3216 44.1473 51.5903 42.8958C51.6364 42.8703 51.6817 42.844 51.7261 42.8168C51.8398 42.2689 51.9535 41.721 52.0672 41.1731C52.7364 41.8725 54.0524 41.7405 54.5713 40.9219C52.7621 37.0388 50.3832 33.4514 47.5141 30.28C46.8887 29.5853 46.5378 28.6842 46.5277 27.7469C46.5176 26.8095 46.849 25.9009 47.4593 25.1927C47.4703 25.1799 47.4811 25.1669 47.4919 25.1539C49.112 24.6033 50.6462 23.8238 52.0483 22.8387C47.24 15.0652 38.0712 8.8897 35.8918 0C29.3354 7.08463 28.5994 9.57977 22.043 16.6644C22.043 16.6644 15.8349 22.3013 14.4949 25.3306C14.8242 25.6786 17.7718 26.5137 17.8851 27.1979C20.1331 27.3792 24.0275 24.9 24.0275 24.9C24.0275 24.9 15.5272 34.0187 12.9464 39.6353C12.714 40.1411 12.4933 40.7187 12.688 41.2403C12.8434 41.6568 13.4011 41.8969 13.7602 41.7315C13.3312 42.1478 12.9867 42.6441 12.746 43.1928C13.4949 43.674 14.3832 43.887 15.2673 43.7974C16.1514 43.7078 16.9796 43.3208 17.6181 42.699C17.2586 43.3748 16.8992 44.0506 16.5397 44.7263L16.5403 44.7279C17.026 44.8876 17.4618 45.172 17.8047 45.5531C18.1477 45.9341 18.3859 46.3986 18.4959 46.9006C18.6058 47.4027 18.5837 47.9249 18.4316 48.4157C18.2796 48.9065 18.0029 49.3489 17.629 49.6991C15.3983 51.7867 13.3601 53.9809 12.6132 55.426C11.9106 56.7854 19.1248 58.424 20.7474 58.3568C22.3701 58.2896 23.8868 57.5722 25.3523 56.8681C25.2809 57.5405 25.4087 58.2192 25.7197 58.8186C26.5223 59.0146 27.3558 59.0473 28.1711 58.9146C28.9864 58.782 29.7671 58.4868 30.4675 58.0463C30.4028 59.3911 32.0886 60.1336 33.2587 59.7528C32.6745 69.0517 33.1019 82.1094 33.6631 95.6648H35.0555V60.2889C35.426 60.4778 35.8223 60.6104 36.2315 60.6823C39.0803 61.1911 42.5181 61.5005 44.3718 59.2652C46.5053 61.4299 50.4151 61.3888 52.5363 59.2316C52.3276 59.6038 52.6471 60.2301 53.1198 60.3288C53.6768 60.4451 54.2187 60.112 54.6916 59.7939C56.8326 58.3536 58.9735 56.9134 61.1145 55.4731C58.4725 53.681 54.7194 51.1352 51.257 48.7865Z" fill="#E6E6E6"/>
    <path d="M115.525 44.4589C119.238 44.4589 122.248 41.4302 122.248 37.6941C122.248 33.9579 119.238 30.9292 115.525 30.9292C111.812 30.9292 108.802 33.9579 108.802 37.6941C108.802 41.4302 111.812 44.4589 115.525 44.4589Z" fill="#F2F2F2"/>
    <path d="M130.573 34.4912C130.184 33.1806 129.086 32.325 127.758 32.1373C127.744 32.1353 127.73 32.138 127.715 32.1371C127.696 32.1313 127.677 32.1268 127.658 32.1238C125.777 31.8932 123.875 32.3099 122.26 33.3061C120.704 34.2836 118.891 34.7257 117.058 34.7975C117.047 34.798 117.036 34.7985 117.025 34.799C116.344 34.8447 115.693 35.1005 115.161 35.5317C114.63 35.9629 114.243 36.5485 114.054 37.2088C114.034 37.2896 114.04 37.3748 114.071 37.4519C114.102 37.5291 114.157 37.5943 114.227 37.638C114.431 37.8111 114.671 37.934 114.93 37.9967C115.488 38.1157 116.049 38.2248 116.611 38.3238C117.708 38.5171 118.811 38.6733 119.92 38.7925C122.171 39.0352 124.435 39.1213 126.698 39.0503C127.451 39.0266 128.178 39.0015 128.868 38.6668C129.371 38.4172 129.8 38.0404 130.113 37.5735C130.409 37.1246 130.603 36.6161 130.683 36.0836C130.762 35.5511 130.725 35.0076 130.573 34.4912Z" fill="#E6E6E6"/>
    <path d="M116.6 43.511C116.211 42.2004 115.112 41.3448 113.785 41.1571C113.77 41.155 113.756 41.1578 113.742 41.1568C113.723 41.1511 113.704 41.1466 113.685 41.1435C111.804 40.9129 109.902 41.3297 108.287 42.3259C106.73 43.3034 104.918 43.7456 103.084 43.8173C103.074 43.8177 103.063 43.8182 103.052 43.8188C102.371 43.8645 101.72 44.1203 101.188 44.5515C100.656 44.9827 100.27 45.5683 100.081 46.2286C100.061 46.3094 100.067 46.3945 100.098 46.4717C100.129 46.5489 100.184 46.614 100.254 46.6577C100.457 46.8309 100.698 46.9538 100.957 47.0165C101.515 47.1355 102.075 47.2445 102.638 47.3436C103.735 47.5368 104.838 47.693 105.947 47.8122C108.197 48.0549 110.462 48.1411 112.724 48.07C113.478 48.0464 114.205 48.0212 114.895 47.6866C115.397 47.4369 115.826 47.0602 116.14 46.5932C116.436 46.1444 116.63 45.6359 116.71 45.1034C116.789 44.5709 116.751 44.0274 116.6 43.511Z" fill="#E6E6E6"/>
    <path d="M173.493 71.7536C171.348 70.2984 171.558 67.1143 173.827 65.8628C173.873 65.8374 173.918 65.8111 173.963 65.7839C174.076 65.2359 174.19 64.688 174.304 64.1401C174.973 64.8396 176.289 64.7076 176.808 63.8889C174.999 60.0058 172.62 56.4185 169.751 53.2471C169.125 52.5524 168.774 51.6512 168.764 50.7139C168.754 49.7766 169.085 48.868 169.696 48.1598C169.707 48.1469 169.718 48.134 169.728 48.1209C171.348 47.5703 172.883 46.7908 174.285 45.8057C169.476 38.0323 160.308 31.8567 158.128 22.967C151.572 30.0517 150.836 32.5468 144.279 39.6314C144.279 39.6314 138.071 45.2683 136.731 48.2976C137.061 48.6456 140.008 49.4807 140.122 50.1649C142.37 50.3463 146.264 47.867 146.264 47.867C146.264 47.867 137.764 56.9857 135.183 62.6024C134.95 63.1082 134.73 63.6857 134.924 64.2074C135.08 64.6238 135.638 64.864 135.997 64.6985C135.568 65.1149 135.223 65.6112 134.982 66.1598C135.731 66.641 136.62 66.854 137.504 66.7644C138.388 66.6748 139.216 66.2879 139.855 65.6661C139.495 66.3418 139.136 67.0176 138.776 67.6934L138.777 67.695C139.262 67.8546 139.698 68.139 140.041 68.5201C140.384 68.9011 140.622 69.3656 140.732 69.8677C140.842 70.3697 140.82 70.8919 140.668 71.3827C140.516 71.8735 140.239 72.3159 139.865 72.6662C137.635 74.7537 135.597 76.948 134.85 78.393C134.147 79.7524 141.361 81.3911 142.984 81.3239C144.607 81.2567 146.123 80.5393 147.589 79.8351C147.517 80.5076 147.645 81.1862 147.956 81.7857C148.759 81.9817 149.592 82.0143 150.408 81.8817C151.223 81.7491 152.004 81.4538 152.704 81.0133C152.639 82.3581 154.325 83.1007 155.495 82.7198C154.911 92.0187 155.338 105.076 155.9 118.632H157.292V83.256C157.662 83.4449 158.059 83.5775 158.468 83.6493C161.317 84.1582 164.755 84.4675 166.608 82.2322C168.742 84.3969 172.652 84.3558 174.773 82.1987C174.564 82.5708 174.884 83.1971 175.356 83.2958C175.913 83.4121 176.455 83.0791 176.928 82.7609C179.069 81.3207 181.21 79.8804 183.351 78.4401C180.709 76.648 176.956 74.1022 173.493 71.7536Z" fill="#E6E6E6"/>
    <path d="M11.8784 107.816C12.018 107.822 12.1562 107.785 12.2743 107.71C12.3924 107.635 12.4846 107.525 12.5385 107.395C12.5925 107.266 12.6054 107.122 12.5757 106.985C12.546 106.848 12.475 106.723 12.3724 106.627C12.3552 106.558 12.3429 106.509 12.3257 106.44C12.3318 106.425 12.338 106.41 12.3443 106.396C12.4849 106.061 12.7206 105.776 13.0217 105.576C13.3227 105.376 13.6758 105.27 14.0366 105.272C14.3973 105.273 14.7496 105.382 15.0492 105.584C15.3488 105.786 15.5824 106.073 15.7206 106.408C16.2728 107.746 16.9758 109.087 17.1489 110.502C17.2252 111.127 17.193 111.761 17.0539 112.376C18.3509 109.529 19.0244 106.435 19.0287 103.303C19.029 102.517 18.9856 101.732 18.8987 100.951C18.827 100.311 18.7274 99.675 18.6 99.0438C17.9048 95.6194 16.4123 92.4096 14.2449 89.6783C13.196 89.1024 12.3476 88.2167 11.8143 87.1407C11.621 86.7539 11.4845 86.341 11.4088 85.9149C11.5271 85.9305 11.6474 85.9402 11.7657 85.948C11.8026 85.95 11.8414 85.952 11.8783 85.9539L11.8922 85.9545C12.0222 85.9604 12.1512 85.9283 12.2635 85.8622C12.3759 85.796 12.4669 85.6986 12.5255 85.5816C12.5841 85.4646 12.6078 85.3331 12.5938 85.2029C12.5799 85.0726 12.5288 84.9492 12.4468 84.8475C12.3957 84.7842 12.3446 84.721 12.2934 84.6578C12.2158 84.5602 12.1363 84.4645 12.0587 84.367C12.0497 84.3577 12.0413 84.3479 12.0335 84.3377C11.9442 84.2264 11.855 84.1171 11.7657 84.0058C11.9286 83.7514 12.1477 83.5383 12.4059 83.3832C13.3002 82.8561 14.534 83.2211 15.18 84.0351C15.8279 84.8491 15.9501 85.991 15.7251 87.008C15.5038 87.8733 15.1377 88.6945 14.6426 89.4362C14.6911 89.4987 14.7416 89.5592 14.7901 89.6217C15.6766 90.7687 16.4493 92.0005 17.097 93.2992C16.9395 91.8442 17.1275 90.3724 17.6456 89.0048C18.1706 87.7303 19.1548 86.6569 20.0215 85.555C21.0625 84.2316 23.1971 84.8091 23.3805 86.4869C23.3823 86.5031 23.384 86.5193 23.3857 86.5356C23.257 86.6087 23.131 86.6862 23.0077 86.7683C22.8528 86.8724 22.7328 87.0212 22.6634 87.1951C22.594 87.369 22.5784 87.56 22.6187 87.743C22.659 87.926 22.7533 88.0925 22.8892 88.2206C23.0251 88.3488 23.1964 88.4326 23.3805 88.4612L23.3993 88.4641C23.3534 88.931 23.2724 89.3936 23.1568 89.8481C22.822 91.1168 22.2302 92.3023 21.4187 93.3301C20.6072 94.358 19.5934 95.206 18.4409 95.8211C18.3653 95.8602 18.2915 95.8992 18.2159 95.9363C18.5631 96.9206 18.8405 97.9284 19.0462 98.9521C19.2302 99.8548 19.3585 100.768 19.4303 101.687C19.5182 102.844 19.513 104.007 19.4147 105.163L19.4206 105.122C19.6689 103.836 20.3507 102.676 21.3508 101.837C22.8362 100.609 24.9348 100.157 26.5372 99.1703C26.7075 99.0603 26.9056 99.0015 27.1079 99.001C27.3103 99.0005 27.5086 99.0583 27.6795 99.1675C27.8503 99.2767 27.9865 99.4327 28.0721 99.6173C28.1577 99.8018 28.1891 100.007 28.1625 100.209C28.1603 100.223 28.1581 100.238 28.1559 100.252C27.917 100.35 27.6844 100.463 27.4595 100.59C27.3308 100.663 27.2048 100.74 27.0815 100.822C26.9266 100.927 26.8066 101.075 26.7372 101.249C26.6677 101.423 26.6522 101.614 26.6924 101.797C26.7327 101.98 26.827 102.147 26.963 102.275C27.0989 102.403 27.2701 102.487 27.4542 102.515L27.4731 102.518C27.4867 102.52 27.4983 102.522 27.5119 102.524C27.1037 103.505 26.5308 104.407 25.8183 105.193C24.9382 106.143 23.8744 106.902 22.6922 107.424C21.51 107.946 20.2343 108.22 18.9433 108.228H18.9414C18.591 109.76 18.0832 111.252 17.4263 112.678H12.014C11.9946 112.618 11.9772 112.555 11.9597 112.495C12.4607 112.527 12.9636 112.496 13.4573 112.405C13.0558 111.909 12.6542 111.41 12.2527 110.914C12.2437 110.905 12.2353 110.895 12.2274 110.885C12.0237 110.631 11.8181 110.379 11.6144 110.125L11.6143 110.125C11.6035 109.347 11.6922 108.571 11.8783 107.816L11.8784 107.816Z" fill="#E6E6E6"/>
    <path d="M173.163 113.131C173.302 113.137 173.441 113.1 173.559 113.025C173.677 112.95 173.769 112.84 173.823 112.71C173.877 112.58 173.89 112.437 173.86 112.3C173.83 112.162 173.759 112.037 173.657 111.942C173.64 111.873 173.627 111.824 173.61 111.755C173.616 111.74 173.622 111.725 173.629 111.71C173.769 111.376 174.005 111.091 174.306 110.891C174.607 110.691 174.96 110.585 175.321 110.587C175.682 110.588 176.034 110.696 176.334 110.899C176.633 111.101 176.867 111.388 177.005 111.723C177.557 113.061 178.26 114.402 178.433 115.817C178.509 116.442 178.477 117.076 178.338 117.691C179.635 114.844 180.309 111.749 180.313 108.618C180.313 107.832 180.27 107.047 180.183 106.266C180.111 105.625 180.012 104.99 179.884 104.359C179.189 100.934 177.697 97.7243 175.529 94.993C174.48 94.417 173.632 93.5314 173.099 92.4554C172.905 92.0686 172.769 91.6557 172.693 91.2296C172.811 91.2452 172.932 91.2549 173.05 91.2627C173.087 91.2647 173.126 91.2666 173.163 91.2686L173.176 91.2692C173.307 91.2751 173.435 91.243 173.548 91.1769C173.66 91.1107 173.751 91.0133 173.81 90.8963C173.868 90.7793 173.892 90.6478 173.878 90.5176C173.864 90.3873 173.813 90.2639 173.731 90.1622C173.68 90.0989 173.629 90.0357 173.578 89.9725C173.5 89.8749 173.421 89.7792 173.343 89.6816C173.334 89.6724 173.326 89.6626 173.318 89.6523C173.229 89.5411 173.139 89.4318 173.05 89.3205C173.213 89.0661 173.432 88.853 173.69 88.6978C174.585 88.1708 175.818 88.5358 176.464 89.3498C177.112 90.1638 177.234 91.3057 177.009 92.3227C176.788 93.188 176.422 94.0092 175.927 94.7509C175.975 94.8134 176.026 94.8739 176.074 94.9364C176.961 96.0834 177.734 97.3152 178.381 98.6139C178.224 97.1589 178.412 95.6871 178.93 94.3195C179.455 93.045 180.439 91.9716 181.306 90.8697C182.347 89.5463 184.481 90.1238 184.665 91.8016C184.667 91.8178 184.668 91.834 184.67 91.8503C184.541 91.9233 184.415 92.0009 184.292 92.083C184.137 92.1871 184.017 92.3359 183.948 92.5098C183.878 92.6837 183.863 92.8747 183.903 93.0577C183.943 93.2407 184.038 93.4072 184.173 93.5353C184.309 93.6635 184.481 93.7473 184.665 93.7759L184.684 93.7788C184.638 94.2457 184.557 94.7083 184.441 95.1628C184.106 96.4315 183.515 97.617 182.703 98.6448C181.892 99.6726 180.878 100.521 179.725 101.136C179.65 101.175 179.576 101.214 179.5 101.251C180.151 103.107 180.559 105.04 180.715 107.002C180.803 108.159 180.797 109.321 180.699 110.478L180.705 110.437C180.953 109.151 181.635 107.991 182.635 107.152C184.12 105.924 186.219 105.472 187.822 104.485C187.992 104.375 188.19 104.316 188.392 104.316C188.595 104.315 188.793 104.373 188.964 104.482C189.135 104.591 189.271 104.747 189.356 104.932C189.442 105.117 189.473 105.322 189.447 105.524C189.445 105.538 189.442 105.552 189.44 105.567C189.201 105.665 188.969 105.777 188.744 105.904C188.615 105.978 188.489 106.055 188.366 106.137C188.211 106.241 188.091 106.39 188.021 106.564C187.952 106.738 187.936 106.929 187.977 107.112C188.017 107.295 188.111 107.461 188.247 107.59C188.383 107.718 188.554 107.802 188.739 107.83L188.757 107.833C188.771 107.835 188.783 107.837 188.796 107.839C188.388 108.82 187.815 109.722 187.103 110.507C186.222 111.458 185.159 112.217 183.977 112.739C182.794 113.261 181.519 113.534 180.228 113.543H180.226C179.875 115.075 179.368 116.566 178.711 117.993H173.298C173.279 117.933 173.261 117.87 173.244 117.81C173.745 117.841 174.248 117.811 174.742 117.72C174.34 117.224 173.939 116.724 173.537 116.228C173.528 116.219 173.52 116.209 173.512 116.199C173.308 115.945 173.102 115.694 172.899 115.44L172.899 115.44C172.888 114.662 172.977 113.886 173.163 113.131Z" fill="#E6E6E6"/>
    <path d="M108.838 97.3765C108.977 97.3829 109.115 97.346 109.234 97.2708C109.352 97.1956 109.444 97.0857 109.498 96.9559C109.552 96.8262 109.565 96.6829 109.535 96.5455C109.505 96.4081 109.434 96.2832 109.332 96.1877C109.314 96.119 109.302 96.0696 109.285 96.0009C109.291 95.986 109.297 95.971 109.303 95.9561C109.444 95.6218 109.68 95.3368 109.981 95.1369C110.282 94.937 110.635 94.831 110.996 94.8324C111.357 94.8337 111.709 94.9423 112.008 95.1445C112.308 95.3466 112.542 95.6334 112.68 95.9687C113.232 97.3069 113.935 98.6475 114.108 100.062C114.184 100.688 114.152 101.322 114.013 101.936C115.31 99.0895 115.984 95.9953 115.988 92.8636C115.988 92.0777 115.945 91.2925 115.858 90.5115C115.786 89.8712 115.687 89.2355 115.559 88.6044C114.864 85.1799 113.372 81.9702 111.204 79.2388C110.155 78.6629 109.307 77.7773 108.773 76.7013C108.58 76.3145 108.444 75.9016 108.368 75.4754C108.486 75.491 108.607 75.5008 108.725 75.5086C108.762 75.5105 108.801 75.5125 108.837 75.5144L108.851 75.5151C108.981 75.5209 109.11 75.4889 109.223 75.4227C109.335 75.3565 109.426 75.2591 109.485 75.1421C109.543 75.0252 109.567 74.8936 109.553 74.7634C109.539 74.6332 109.488 74.5098 109.406 74.408C109.355 74.3448 109.304 74.2815 109.253 74.2183C109.175 74.1207 109.096 74.0251 109.018 73.9275C109.009 73.9182 109.001 73.9084 108.993 73.8982C108.903 73.7869 108.814 73.6776 108.725 73.5664C108.888 73.312 109.107 73.0989 109.365 72.9437C110.259 72.4167 111.493 72.7817 112.139 73.5957C112.787 74.4096 112.909 75.5515 112.684 76.5685C112.463 77.4339 112.097 78.255 111.602 78.9968C111.65 79.0592 111.701 79.1197 111.749 79.1822C112.636 80.3293 113.409 81.561 114.056 82.8598C113.899 81.4048 114.087 79.933 114.605 78.5654C115.13 77.2908 116.114 76.2174 116.981 75.1156C118.022 73.7921 120.156 74.3697 120.34 76.0474C120.342 76.0637 120.343 76.0799 120.345 76.0961C120.216 76.1692 120.09 76.2468 119.967 76.3288C119.812 76.4329 119.692 76.5817 119.623 76.7556C119.553 76.9296 119.538 77.1205 119.578 77.3035C119.618 77.4865 119.712 77.653 119.848 77.7812C119.984 77.9093 120.156 77.9932 120.34 78.0217L120.359 78.0247C120.313 78.4915 120.232 78.9542 120.116 79.4086C119.781 80.6774 119.189 81.8628 118.378 82.8907C117.566 83.9185 116.553 84.7666 115.4 85.3817C115.324 85.4207 115.251 85.4598 115.175 85.4968C115.826 87.3526 116.234 89.2857 116.389 91.2474C116.477 92.4047 116.472 93.5673 116.374 94.7238L116.38 94.6828C116.628 93.3968 117.31 92.2364 118.31 91.3977C119.795 90.1699 121.894 89.7177 123.496 88.7308C123.667 88.6208 123.865 88.5621 124.067 88.5616C124.27 88.5611 124.468 88.6188 124.639 88.728C124.81 88.8372 124.946 88.9933 125.031 89.1778C125.117 89.3624 125.148 89.5677 125.122 89.7696C125.12 89.7839 125.117 89.7983 125.115 89.8127C124.876 89.9106 124.644 90.0233 124.419 90.1503C124.29 90.2234 124.164 90.301 124.041 90.383C123.886 90.4871 123.766 90.6359 123.696 90.8099C123.627 90.9838 123.611 91.1748 123.652 91.3578C123.692 91.5408 123.786 91.7072 123.922 91.8354C124.058 91.9636 124.229 92.0474 124.413 92.076L124.432 92.0789C124.446 92.0808 124.458 92.0828 124.471 92.0848C124.063 93.0654 123.49 93.968 122.778 94.7531C121.897 95.7034 120.834 96.4628 119.651 96.9848C118.469 97.5067 117.194 97.7802 115.903 97.7884H115.901C115.55 99.3207 115.042 100.812 114.386 102.239H108.973C108.954 102.178 108.936 102.116 108.919 102.055C109.42 102.087 109.923 102.057 110.417 101.966C110.015 101.47 109.613 100.97 109.212 100.474C109.203 100.465 109.195 100.455 109.187 100.445C108.983 100.191 108.777 99.9395 108.574 99.6857L108.574 99.6854C108.563 98.9076 108.651 98.1316 108.837 97.3766L108.838 97.3765Z" fill="#E6E6E6"/>
    <path d="M74.4477 138.76L76.7124 138.083L75.2143 128.767L71.8715 129.767L74.4477 138.76Z" fill="#A0616A"/>
    <path d="M60.5574 135.083C60.6953 135.204 60.8334 135.323 60.9731 135.443C61.251 135.682 61.5325 135.918 61.8144 136.151C61.9561 136.268 62.0994 136.385 62.2414 136.5L62.2407 136.505L62.2497 136.508L62.2526 136.51L62.4814 136.607L62.9662 135.753L63.1899 135.359L63.5059 134.802L64.0849 133.782L67.1334 128.414L63.9221 127.052L63.7157 127.547L63.7142 127.547L63.6121 127.792L61.6945 132.371L61.303 133.307L61.2907 133.335L61.0552 133.894L60.8521 134.379L60.6258 134.92L60.5574 135.083Z" fill="#A0616A"/>
    <path d="M43.7783 111.851C43.9363 112.227 44.0992 112.602 44.2641 112.974C44.5703 113.668 44.8888 114.353 45.2196 115.031C45.2194 115.033 45.2209 115.033 45.2222 115.035C45.4347 115.307 45.678 115.553 45.9471 115.768C45.958 115.779 45.9709 115.787 45.9821 115.797C46.1807 115.953 46.3976 116.083 46.628 116.186C46.7111 116.221 46.7958 116.257 46.879 116.293C47.1797 116.417 47.4789 116.53 47.7779 116.635C48.3099 116.821 48.8411 116.978 49.3714 117.106C49.414 117.118 49.4568 117.128 49.4996 117.138C51.6869 117.654 53.8826 117.734 56.199 117.662C57.3427 117.627 58.5162 117.554 59.7313 117.478C60.1286 117.452 60.5271 117.428 60.9303 117.404C60.9607 117.403 60.9928 117.4 61.0247 117.399C61.6008 117.364 62.1859 117.333 62.7847 117.306C63.5384 117.271 64.3146 117.245 65.1189 117.231L64.8886 118.332C64.7079 119.178 64.3992 119.991 63.9732 120.743C63.4844 121.673 63.0975 122.409 63.4008 124.118L63.5464 124.945C63.3456 125.312 63.2321 125.721 63.2149 126.14C63.1977 126.559 63.2771 126.976 63.4471 127.359L63.4882 127.45L60.3451 132.805L60.1414 133.152L61.2905 133.335L62.7037 133.562L65.0992 133.944L69.6539 127.517L69.8718 127.21L69.8745 127.193L71.6279 113.727C71.6419 113.608 71.6515 113.487 71.6546 113.366C71.6763 112.819 71.5893 112.272 71.3987 111.759C71.2082 111.245 70.9179 110.775 70.5449 110.376C70.1878 109.99 69.7582 109.68 69.2809 109.463C68.8037 109.246 68.2884 109.127 67.7649 109.113L66.5576 109.078L64.091 109.007L62.3533 108.958L62.3186 108.958L57.1943 108.811L57.0666 107.275L57.004 107.24L55.0127 106.123L48.1255 102.261L48.1079 102.252L47.6549 101.998L47.5829 102.082C47.5615 102.107 47.5401 102.133 47.5202 102.158C46.9099 102.94 46.3805 103.782 45.9403 104.672C45.2071 106.124 44.5567 107.616 43.9922 109.143C43.9675 109.209 43.9453 109.269 43.9257 109.323L43.9183 109.34C43.9095 109.365 43.9037 109.382 43.9015 109.387C43.6217 110.066 43.6035 110.947 43.7783 111.851Z" fill="#2F2E41"/>
    <path d="M44.2475 106.86C44.2864 106.764 44.3317 106.668 44.3781 106.574C44.7405 105.871 45.1411 105.188 45.5782 104.529C46.0706 103.778 46.6446 102.981 47.3135 102.126C47.6371 101.712 47.9826 101.282 48.3501 100.838C48.5342 100.615 48.7247 100.389 48.9215 100.159C48.9295 100.148 48.938 100.138 48.947 100.128L49.0036 100.06L56.0847 102.187L56.0812 103.163L56.5948 104.545L56.56 104.586C56.5616 104.586 56.5618 104.585 56.56 104.586V104.396L56.7487 104.586L58.5743 106.856L58.5869 106.856L62.6666 106.972L66.8709 107.092L69.1293 107.157C69.6527 107.171 70.1681 107.29 70.6453 107.507C71.1226 107.724 71.5522 108.034 71.9092 108.42C72.2822 108.819 72.5724 109.289 72.7629 109.803C72.9534 110.316 73.0405 110.863 73.019 111.41C73.0157 111.521 73.0074 111.635 72.9946 111.746L74.2988 117.057C75.0795 120.233 75.3793 123.51 75.1881 126.776L75.9438 131.945L75.7226 131.93L72.4303 131.717L71.5609 131.661L70.1104 128.589C69.9451 128.239 69.7922 127.881 69.6544 127.518C69.4268 126.924 69.2371 126.316 69.0864 125.698L66.5435 115.275C66.2194 115.279 65.8988 115.282 65.5818 115.282C64.1146 115.287 62.7113 115.258 61.3721 115.196C57.0173 114.995 53.306 114.442 50.0716 113.508C49.1631 113.247 48.2912 112.955 47.4559 112.632C47.1494 112.515 46.8478 112.393 46.5512 112.266C46.4812 112.237 46.4128 112.209 46.3446 112.179C45.7316 111.911 45.1951 111.493 44.7842 110.963C44.3733 110.432 44.1012 109.807 43.9927 109.143C43.8597 108.373 43.9481 107.581 44.2475 106.86Z" fill="#2F2E41"/>
    <path d="M74.0026 137.207L76.4535 136.472L76.8379 136.356L77.1867 137.857L81.0315 139.374C81.2217 139.449 81.383 139.583 81.492 139.757C81.6011 139.93 81.652 140.134 81.6375 140.339C81.6229 140.544 81.5437 140.739 81.4112 140.896C81.2787 141.052 81.1001 141.161 80.9013 141.208L76.7572 142.186L75.6977 140.87L75.7645 142.42L74.2036 142.789L73.4069 137.387L74.0026 137.207Z" fill="#2F2E41"/>
    <path d="M60.345 132.805L60.1412 133.152L60.2867 133.175L60.345 132.805Z" fill="#2F2E41"/>
    <path d="M61.0677 133.381L63.3236 134.593L63.6777 134.783L62.8761 136.097L64.5472 139.897C64.6299 140.085 64.6509 140.294 64.6069 140.495C64.5629 140.695 64.4563 140.876 64.3027 141.012C64.149 141.147 63.9564 141.229 63.753 141.247C63.5495 141.264 63.3459 141.215 63.1719 141.108L59.5435 138.869L59.7107 137.184L58.6743 138.332L57.3075 137.489L60.5189 133.086L61.0677 133.381Z" fill="#2F2E41"/>
    <path d="M77.3694 64.2579C77.3911 64.5094 77.3577 64.7627 77.2716 64.9998C77.1855 65.237 77.0488 65.4523 76.8711 65.6305C76.6934 65.8088 76.479 65.9456 76.243 66.0315C76.007 66.1173 75.7552 66.15 75.5053 66.1274L72.9963 71.7216L71.3022 69.026L73.9445 64.1269C74.0102 63.707 74.2267 63.3259 74.553 63.0558C74.8792 62.7858 75.2926 62.6455 75.7148 62.6617C76.1369 62.6778 76.5386 62.8492 76.8435 63.1434C77.1485 63.4376 77.3356 63.8341 77.3694 64.2579Z" fill="#A0616A"/>
    <path d="M70.9873 80.8999L59.4919 89.7502C58.58 90.4508 57.4292 90.7587 56.2919 90.6064C55.1546 90.4542 54.1238 89.8542 53.4256 88.9381C53.0396 88.4305 52.7694 87.8436 52.6342 87.2191C52.499 86.5946 52.5021 85.9478 52.6432 85.3246C52.7844 84.7014 53.0601 84.1171 53.4509 83.6132C53.8417 83.1094 54.338 82.6982 54.9045 82.409L66.3646 76.5586L71.4913 66.5085L74.9337 67.538L70.9873 80.8999Z" fill="#5E81F4"/>
    <path d="M46.5052 91.4138L46.2722 100.002C43.065 105.454 42.7002 108.101 43.5879 109.513L56.7756 104.666L56.9978 104.132L57.6865 100.294L58.935 96.3353C59.1549 95.9216 62.1395 93.38 59.3416 88.5588L53.7131 80.9291L49.2032 80.6694C48.4597 82.5896 49.8009 83.6372 48.4613 84.08C45.4321 86.8737 45.8771 87.3283 46.5052 91.4138Z" fill="#5E81F4"/>
    <path d="M37.5363 115.524C37.4342 115.293 37.3835 115.043 37.388 114.79C37.3924 114.538 37.4518 114.289 37.5619 114.062C37.6721 113.836 37.8303 113.636 38.0255 113.477C38.2207 113.318 38.4481 113.205 38.6917 113.144L39.2479 107.032L41.7238 109.024L40.816 114.522C40.8902 114.941 40.8092 115.372 40.5884 115.734C40.3677 116.097 40.0225 116.365 39.6182 116.489C39.2139 116.612 38.7787 116.582 38.395 116.404C38.0113 116.226 37.7058 115.913 37.5363 115.524Z" fill="#A0616A"/>
    <path d="M38.1686 97.6969L46.1622 85.555C46.7968 84.5933 47.7847 83.9241 48.9091 83.6944C50.0334 83.4646 51.2025 83.6931 52.1596 84.3296C52.6892 84.6826 53.135 85.1486 53.4654 85.6945C53.7959 86.2403 54.0028 86.8527 54.0716 87.4881C54.1404 88.1235 54.0693 88.7663 53.8635 89.371C53.6576 89.9756 53.3219 90.5273 52.8803 90.9867L43.9466 100.282L42.3618 111.465L38.7741 111.623L38.1686 97.6969Z" fill="#5E81F4"/>
    <path d="M55.11 70.2503C56.7046 73.4128 55.6629 77.0761 52.7039 79.0024C49.5042 81.0855 45.3497 80.6294 44.006 76.5813C42.5095 72.0734 43.7389 70.1396 46.4121 67.8292C49.5447 65.1218 53.3871 66.8333 55.11 70.2503Z" fill="#2F2E41"/>
    <path d="M47.2605 77.2955C48.0723 78.3658 49.2731 79.0681 50.5992 79.2481C51.9252 79.4281 53.268 79.071 54.3326 78.2553C55.3972 77.4397 56.0964 76.2321 56.2767 74.898C56.457 73.5639 56.1036 72.2123 55.2941 71.1403L55.2503 71.0824C54.4233 70.0408 53.2226 69.3681 51.9071 69.2093C50.5916 69.0505 49.2669 69.4184 48.2185 70.2336C47.1702 71.0488 46.4824 72.246 46.3034 73.567C46.1244 74.8879 46.4686 76.2267 47.2618 77.2945L47.2605 77.2955Z" fill="#A0616A"/>
    <path d="M56.6554 69.7383C55.8349 70.5239 54.8348 71.0941 53.7434 71.3986C53.5246 71.144 53.2652 70.9277 52.9759 70.7587C53.1144 71.0486 53.2093 71.3576 53.2576 71.6756C52.7708 72.6921 50.7827 73.4227 48.8826 74.17L46.3658 69.7008L49.6971 67.8015C52.3738 65.9394 55.5249 66.7341 56.6554 69.7383Z" fill="#2F2E41"/>
    <path d="M44.4674 67.8348C44.0141 67.6241 43.4267 67.7542 43.0005 68.0504C42.595 68.3606 42.2671 68.7619 42.043 69.2223C41.6356 69.9671 41.3428 70.7699 41.1748 71.6032C41.0311 72.3241 41.0555 73.1956 41.6983 73.5718C42.2346 73.8857 43.0015 73.688 43.4944 73.2691C43.9874 72.8502 44.2651 72.2614 44.5056 71.6865C44.7461 71.1116 44.9736 70.5155 45.4011 70.0381L44.957 70.2467C45.0973 69.8178 45.1627 69.3678 45.1503 68.9164C45.1401 68.6919 45.0718 68.4739 44.952 68.2841C44.8322 68.0944 44.6651 67.9395 44.4674 67.8348Z" fill="#2F2E41"/>
    <path d="M50.229 68.4207L46.6552 70.4583C45.6888 71.0093 44.9795 71.924 44.6833 73.0012C44.3872 74.0784 44.5285 75.2299 45.076 76.2023C45.8737 77.6185 47.1675 78.6845 48.7046 79.1921C50.2417 79.6997 51.9116 79.6123 53.3881 78.9471L50.1224 76.0462L54.5526 78.3175L55.4984 77.7782C50.7472 76.9089 49.8306 73.1587 50.229 68.4207Z" fill="#2F2E41"/>
  </g>
  <defs>
    <clipPath id="clip0_80_158">
      <rect width="192" height="142.789" fill="white"/>
    </clipPath>
  </defs>
</svg>
