<svg viewBox="0 0 213 182" fill="none" xmlns="http://www.w3.org/2000/svg">
<path d="M212.341 181.245H157V179.55C157 178.078 157.586 176.666 158.628 175.626C159.671 174.585 161.085 174 162.559 174H206.781C208.256 174 209.67 174.585 210.712 175.626C211.755 176.666 212.341 178.078 212.341 179.55V181.245Z" fill="#E6E6E6"/>
<path d="M182.916 176L184.6 175.357C166.975 133.893 168.673 81.582 183.572 36.7087C185.342 31.5095 185.469 25.9333 183.939 20.6662C182.409 15.3992 179.288 10.6709 174.959 7.06326C166.312 -0.250965 154.39 -2.03277 143.844 2.4127C133.435 6.80145 132 14.446 132 22.0533H133.816C133.816 13.9329 135.647 7.75266 144.582 3.98544C154.466 -0.180785 165.642 1.49029 173.75 8.34772C177.816 11.7361 180.747 16.177 182.185 21.124C183.622 26.0711 183.502 31.3085 181.84 36.1918C166.769 81.5833 165.171 134.253 182.916 176Z" fill="#E6E6E6"/>
<path d="M133.861 37.9222C137.368 37.9222 140.211 35.084 140.211 31.5828C140.211 28.0817 137.368 25.2434 133.861 25.2434C130.353 25.2434 127.51 28.0817 127.51 31.5828C127.51 35.084 130.353 37.9222 133.861 37.9222Z" fill="#E6E6E6"/>
<path d="M124.08 42.6342V30.6226H125.951V42.6342C126.488 42.8509 126.932 43.2472 127.208 43.7552C127.485 44.2632 127.575 44.8512 127.464 45.4185C127.354 45.9858 127.049 46.497 126.602 46.8645C126.156 47.2321 125.595 47.4331 125.016 47.4331C124.437 47.4331 123.876 47.2321 123.429 46.8645C122.982 46.497 122.678 45.9858 122.567 45.4185C122.456 44.8512 122.547 44.2632 122.823 43.7552C123.099 43.2472 123.543 42.8509 124.08 42.6342Z" fill="#E6E6E6"/>
<path d="M115.036 21.3942C115.039 18.633 116.139 15.9858 118.095 14.0334C120.051 12.0809 122.703 10.9826 125.469 10.9795H142.706C145.473 10.9795 148.127 12.0768 150.083 14.0299C152.04 15.983 153.139 18.6321 153.139 21.3942C153.139 24.1564 152.04 26.8054 150.083 28.7586C148.127 30.7117 145.473 31.809 142.706 31.809H125.469C122.703 31.8059 120.051 30.7076 118.095 28.7551C116.139 26.8027 115.039 24.1554 115.036 21.3942Z" fill="#5E81F4"/>
<path d="M90.7488 85.8891C92.4795 63.786 101.328 53.255 95.6623 46.6509C90.2349 40.3249 74.9469 41.6317 65.1288 47.7019C38.6469 64.0747 28.9449 129.33 63.023 161.213C95.4059 191.509 156.778 181.806 170.417 157.008C173.599 151.223 176.127 141.08 171.47 134.937C159.906 119.686 117.864 147.309 99.1719 130.032C88.0942 119.793 89.7991 98.0192 90.7488 85.8891Z" fill="#575569"/>
<path d="M110.992 74.908C110.349 75.2034 109.846 75.7376 109.592 76.3971C109.337 77.0565 109.35 77.7891 109.629 78.439C109.687 78.5702 109.757 78.6964 109.836 78.8162L104.152 86.3923L106.988 90.6239L113.651 79.4053C114.123 79.0378 114.46 78.5247 114.609 77.946C114.758 77.3673 114.711 76.7556 114.475 76.2063C114.338 75.8951 114.141 75.6138 113.895 75.3787C113.649 75.1435 113.359 74.959 113.042 74.8357C112.724 74.7124 112.386 74.6527 112.045 74.66C111.704 74.6674 111.369 74.7416 111.057 74.8785C111.035 74.888 111.014 74.8979 110.992 74.908Z" fill="#FFB6B6"/>
<path d="M110.987 87.9705C111.359 88.2998 110.328 88.7062 109.236 88.0651C108.924 87.8794 108.79 87.8023 108.755 87.8514C108.668 87.974 109.18 88.8779 109.043 90.8853C108.959 92.0835 106.965 94.3362 104.702 96.5328C101.641 99.5037 98.0826 102.37 98.0826 102.37L96.8331 101.371L83.7318 90.8853L81.5208 87.8304C81.7232 86.624 82.0273 85.4368 82.4298 84.2814C82.9841 82.6822 83.643 81.121 84.4021 79.6078C84.8092 78.7845 85.2269 77.9998 85.627 77.2781L92.6462 84.9996L98.5283 91.4669C98.5283 91.4669 100.241 88.7132 101.568 87.9635C101.737 87.8557 101.929 87.7896 102.129 87.7708C103.47 87.7077 103.551 86.979 101.996 85.392C100.441 83.805 102.403 85.2869 103.786 84.8595C105.168 84.4321 103.786 84.8595 104.077 83.7909C104.368 82.7224 108.246 80.5783 108.246 80.5783L108.408 80.7219L111.338 83.304L112.177 84.0432C112.177 84.0432 111.261 86.5516 111.008 87.0806C110.756 87.6096 110.619 87.6377 110.987 87.9705Z" fill="#5E81F4"/>
<path d="M188.24 136.638L188.382 132.774L173.519 130.385L173.308 136.088L188.24 136.638Z" fill="#FFB6B6"/>
<path d="M185.542 137.802L185.401 131.614L188.05 131.712L192.328 125.992C192.539 125.71 192.836 125.502 193.174 125.399C193.511 125.297 193.873 125.305 194.206 125.422C194.539 125.539 194.826 125.759 195.025 126.051C195.224 126.342 195.324 126.69 195.311 127.042L195.039 134.392L192.371 135.562L194.974 136.154L194.871 138.925L185.542 137.802Z" fill="#2F2E41"/>
<path d="M104.585 138.143L151.664 139.335C151.664 139.335 171.994 140.507 176.764 137.409L181.794 136.775L182.067 129.4C182.067 129.4 178.991 129.422 177.222 128.6C175.454 127.777 176.683 126.771 174.997 127.76C173.311 128.75 173.489 128.869 172.185 128.414C170.882 127.959 111.101 118.864 111.101 118.864L104.585 138.143Z" fill="#2F2E41"/>
<path d="M166.622 134.942L169.36 132.206L160.091 120.364L156.051 124.402L166.622 134.942Z" fill="#FFB6B6"/>
<path d="M163.852 132.562L167.964 127.93L169.84 129.801L176.873 128.512C177.221 128.448 177.579 128.497 177.897 128.651C178.214 128.805 178.474 129.057 178.639 129.369C178.803 129.681 178.863 130.038 178.81 130.386C178.757 130.735 178.594 131.057 178.344 131.307L173.137 136.51L170.384 135.557L171.889 137.758L169.926 139.72L163.852 132.562Z" fill="#2F2E41"/>
<path d="M86.0112 112.405L86.4793 123.265C87.0303 136.05 101.135 143.788 112.072 137.113C112.274 136.99 112.476 136.863 112.679 136.731C112.679 136.731 116.825 135.619 116.7 133.859C116.574 132.099 117.587 131.242 118.483 131.722C119.38 132.202 131.116 115.575 131.116 115.575C131.116 115.575 155.502 127.717 160.881 130.575C160.881 130.575 165.939 122.681 165.572 122.764C165.206 122.847 135.405 102.025 135.405 102.025C135.405 102.025 130.55 97.1206 124.528 100.359C124.402 100.835 124.509 100.851 124.509 100.851L104.615 117.033L101.804 111.704L86.0112 112.405Z" fill="#2F2E41"/>
<path d="M104.768 98.8276C104.731 99.3293 104.659 99.8279 104.554 100.32C104.411 101.032 104.18 101.724 103.866 102.38C103.866 102.38 103.866 103.112 102.463 105.565C101.059 108.017 102.814 106.966 103.866 108.788C104.919 110.606 103.866 109.769 102.698 110.939C102.361 111.279 102.122 111.704 102.006 112.168C101.889 112.632 101.899 113.118 102.034 113.577C102.034 113.577 86.9572 113.587 84.1495 112.536C81.3419 111.485 80.7031 105.565 83.2195 104.98C85.7324 104.395 82.4579 103.813 80.9804 102.464C79.5028 101.115 82.4579 98.9082 82.4579 98.9082C82.4579 98.9082 81.2401 96.8097 81.3418 89.7643C81.3562 89.1163 81.416 88.47 81.5208 87.8304C81.7233 86.624 82.0274 85.4368 82.4298 84.2814C82.9842 82.6822 83.6431 81.121 84.4022 79.6079C84.8093 78.7846 85.227 77.9998 85.6271 77.2781C85.6902 77.166 85.7499 77.0574 85.8131 76.9488C86.5747 75.6034 87.2696 74.5034 87.7293 73.7992C88.0838 73.2527 88.2979 72.9444 88.2979 72.9444L90.8529 68.509L99.3812 72.4994L98.8969 79.0263L100.367 83.9486L101.045 86.2153L101.568 87.9635L102.375 90.6716C102.375 90.6716 102.154 90.6822 102.417 91.043C103.629 92.6519 104.415 94.5401 104.702 96.5328C104.803 97.2934 104.825 98.0624 104.768 98.8276Z" fill="#5E81F4"/>
<path d="M129.397 99.531L129.237 99.4794L108.825 92.9178L116.347 68.2847C116.497 67.7942 116.756 67.344 117.105 66.9681C117.455 66.5922 117.885 66.3004 118.364 66.1146C118.843 65.9289 119.358 65.854 119.87 65.8958C120.382 65.9375 120.877 66.0947 121.32 66.3555L134.364 74.0487C135.396 74.657 136.182 75.6081 136.583 76.7359C136.985 77.8637 136.976 79.0964 136.56 80.2187L129.397 99.531Z" fill="#2F2E41"/>
<path d="M129.48 101.097L108.904 94.4825L116.425 69.8494C116.575 69.3589 116.835 68.9087 117.184 68.5328C117.533 68.1569 117.964 67.8651 118.443 67.6793C118.921 67.4936 119.436 67.4187 119.948 67.4605C120.46 67.5022 120.956 67.6594 121.398 67.9202L135.065 74.7318C137.119 75.9424 137.071 79.0757 136.117 81.6467L129.48 101.097Z" fill="#5E81F4"/>
<path d="M127.42 102.88C126.946 103.147 126.422 103.312 125.881 103.366C125.339 103.42 124.793 103.36 124.275 103.192L111.123 98.964C110.114 98.635 109.274 97.925 108.782 96.9859C108.291 96.0468 108.186 94.953 108.491 93.938L115.085 72.344C115.217 71.9126 115.434 71.5118 115.723 71.1651C116.011 70.8184 116.367 70.5328 116.768 70.325C117.169 70.1172 117.607 69.9915 118.058 69.9551C118.508 69.9188 118.961 69.9725 119.39 70.1133L133.02 74.5805C133.669 74.7933 134.269 75.1339 134.785 75.5821C135.3 76.0303 135.72 76.5771 136.02 77.1901C136.32 77.8031 136.494 78.47 136.532 79.1512C136.57 79.8325 136.47 80.5144 136.239 81.1566L129.189 100.777C128.873 101.668 128.244 102.415 127.42 102.88Z" fill="#3F3D56"/>
<path d="M98.8991 68.5848C104.102 68.5848 108.319 64.3747 108.319 59.1813C108.319 53.9879 104.102 49.7778 98.8991 49.7778C93.6965 49.7778 89.479 53.9879 89.479 59.1813C89.479 64.3747 93.6965 68.5848 98.8991 68.5848Z" fill="#FFB6B6"/>
<path d="M67.0447 68.7263C67.9091 70.399 69.3266 71.7217 71.0566 72.4701C71.747 72.7841 72.4729 73.0135 73.2185 73.1532C73.4293 72.3188 73.7667 71.5216 74.219 70.7891C74.0683 71.6147 74.0683 72.4607 74.219 73.2863C75.355 73.3791 76.4979 73.2375 77.5767 72.8702C78.6362 72.5105 79.5971 71.9093 80.3832 71.1143C81.1694 70.3193 81.7591 69.3523 82.1056 68.2901C82.856 65.7976 82.0478 63.1353 81.9841 60.5336C81.9185 57.9315 83.1562 54.8194 85.7439 54.4974C87.7145 54.2519 87.4708 54.4425 88.8868 55.8322C86.9061 58.0286 91.7347 67.7564 94.3257 67.3266C95.7906 67.0835 96.8686 65.9226 97.1583 65.9628C98.6419 69.5897 94.1791 74.7335 97.7187 76.4221L97.456 76.0752C95.6033 73.0198 101.085 67.8595 99.2327 64.8042C98.7162 63.9495 98.1792 62.9474 98.4987 62.0019C98.8021 61.103 100.338 60.8185 100.662 61.6367C100.135 59.7613 101.606 57.5602 103.559 57.3688C105.295 57.1979 105.194 57.6916 106.849 58.1421C107.06 57.4306 107.365 56.7501 107.755 56.1183C107.623 56.8391 107.607 57.5763 107.707 58.3023C108.304 58.3734 108.907 58.2458 109.424 57.9395C110.952 57.0251 110.997 54.665 109.948 53.2286C108.896 51.7919 107.135 51.0826 105.436 50.5458C105.42 46.9587 95.7509 45.2415 93.9726 48.5765C93.7896 45.8762 90.6888 44.0571 88.0176 44.5158C85.3463 44.9746 83.239 47.1127 81.9542 49.4959C80.6697 51.8771 80.032 54.5435 79.0916 57.08C78.1511 59.6164 76.8069 62.1456 74.5551 63.6506C72.3035 65.1536 68.9574 65.2901 67.0775 63.342C66.6487 64.1738 66.4223 65.0948 66.4166 66.0302C66.4109 66.9657 66.6261 67.8893 67.0447 68.7263Z" fill="#2F2E41"/>
<path d="M6.67921 180.142C1.16702 179.104 -3.71226 154.314 7.13282 142.105C10.8485 137.922 15.4833 136.102 21.6485 134.407C57.1332 124.655 84.198 133.949 87.8351 136.219C91.464 138.483 97.8259 172.596 89.6907 177.425C85.1134 180.142 76.0411 181.5 71.5461 178.33C64.932 173.666 76.0338 161.569 71.0925 153.426C65.4851 144.185 35.9575 141.072 21.1538 150.256C5.35969 160.054 37.9375 186.028 6.67921 180.142Z" fill="#F2F2F2"/>
<path d="M43.5328 137.994H22.4743C17.2759 133.021 13.5589 128.228 16.5347 124.25C16.5347 123.106 16.9899 122.009 17.8 121.2C18.6101 120.392 19.7088 119.938 20.8544 119.938H45.1527C46.2984 119.938 47.3971 120.392 48.2072 121.2C49.0173 122.009 49.4724 123.106 49.4724 124.25C50.6054 128.783 48.5813 133.365 43.5328 137.994Z" fill="#CCCCCC"/>
<path d="M39.7509 114.509C39.5511 114.518 39.3533 114.466 39.1843 114.359C39.0153 114.252 38.8833 114.096 38.8061 113.912C38.729 113.728 38.7104 113.524 38.7529 113.329C38.7955 113.134 38.897 112.957 39.0439 112.821L39.1108 112.556C39.102 112.535 39.0931 112.513 39.0842 112.492C38.8829 112.017 38.5456 111.613 38.1147 111.329C37.6838 111.045 37.1784 110.895 36.6621 110.897C36.1458 110.899 35.6416 111.053 35.2128 111.34C34.784 111.627 34.4497 112.034 34.2519 112.51C33.4616 114.41 32.4554 116.314 32.2076 118.323C32.0985 119.211 32.1445 120.111 32.3437 120.983C30.4874 116.941 29.5234 112.548 29.5172 108.101C29.5168 106.985 29.5789 105.87 29.7033 104.762C29.806 103.852 29.9485 102.95 30.1308 102.054C31.1258 97.1914 33.2619 92.6341 36.3639 88.7559C37.8653 87.9382 39.0794 86.6807 39.8428 85.1529C40.1193 84.6037 40.3148 84.0175 40.423 83.4124C40.2537 83.4346 39.7845 80.8598 39.9122 80.7018C39.6762 80.3443 39.2537 80.1666 38.996 79.8177C37.714 78.0827 35.9477 78.3856 35.0257 80.7434C33.0559 81.7358 33.0369 83.3816 34.2455 84.9645C35.0144 85.9715 35.1201 87.3341 35.7948 88.4122C35.7253 88.5009 35.6531 88.5869 35.5837 88.6756C34.3149 90.3042 33.209 92.0531 32.2819 93.8972C32.5074 91.8313 32.2383 89.7415 31.4968 87.7998C30.7454 85.9901 29.3368 84.466 28.0964 82.9015C26.6065 81.0224 23.5513 81.8425 23.2888 84.2246C23.2863 84.2476 23.2838 84.2707 23.2814 84.2938C23.4656 84.3975 23.646 84.5076 23.8224 84.6241C24.0441 84.772 24.2159 84.9832 24.3153 85.2302C24.4146 85.4771 24.4369 85.7483 24.3793 86.0081C24.3216 86.268 24.1866 86.5044 23.9921 86.6863C23.7975 86.8683 23.5524 86.9873 23.289 87.0279L23.262 87.032C23.3276 87.6949 23.4436 88.3518 23.609 88.9971C22.0178 95.14 25.4532 97.3775 30.3585 97.478C30.4668 97.5334 30.5723 97.5888 30.6806 97.6415C29.7492 100.276 29.1649 103.021 28.9425 105.806C28.8167 107.45 28.8241 109.1 28.9648 110.743L28.9564 110.684C28.601 108.858 27.6252 107.211 26.1939 106.02C24.0679 104.277 21.0644 103.635 18.7709 102.233C18.5271 102.077 18.2437 101.994 17.9541 101.993C17.6644 101.992 17.3806 102.074 17.1361 102.229C16.8916 102.384 16.6966 102.606 16.5741 102.868C16.4516 103.13 16.4068 103.422 16.4448 103.708C16.4479 103.729 16.451 103.749 16.4542 103.769C16.7961 103.908 17.129 104.068 17.4509 104.249C17.6351 104.353 17.8155 104.463 17.992 104.579C18.2136 104.727 18.3854 104.938 18.4847 105.185C18.5841 105.432 18.6064 105.703 18.5487 105.963C18.4911 106.223 18.3561 106.459 18.1616 106.641C17.967 106.823 17.722 106.942 17.4585 106.983L17.4315 106.987C17.412 106.99 17.3954 106.993 17.376 106.995C17.9601 108.388 18.78 109.669 19.7998 110.784C20.7947 116.147 25.0682 116.655 29.6394 115.094H29.6422C30.1438 117.269 30.8704 119.387 31.8106 121.413H39.5568C39.5846 121.327 39.6096 121.238 39.6346 121.152C38.9176 121.197 38.1977 121.155 37.4911 121.025C38.0659 120.321 38.6406 119.611 39.2153 118.907C39.2281 118.894 39.2402 118.88 39.2514 118.866C39.5429 118.506 39.8372 118.148 40.1288 117.788L40.1289 117.787C40.1445 116.683 40.0172 115.581 39.7509 114.509Z" fill="#CCCCCC"/>
<path d="M66.1718 136.868C66.3003 137.241 66.544 137.564 66.8679 137.791C67.1919 138.017 67.5794 138.136 67.9748 138.129L75.7002 137.93C76.0986 137.922 76.4837 137.786 76.7981 137.542C77.1124 137.297 77.3391 136.958 77.4443 136.574L78.5375 124.905C78.9254 125.081 79.3476 125.167 79.7734 125.159C80.5203 125.14 81.2293 124.826 81.7442 124.285C82.2591 123.745 82.5379 123.022 82.5191 122.277C82.5004 121.531 82.1857 120.823 81.6442 120.309C81.1028 119.795 80.3789 119.517 79.6319 119.536C79.4618 119.535 79.2921 119.553 79.1257 119.588C78.9447 119.393 78.7247 119.237 78.4799 119.132C78.2351 119.026 77.9709 118.973 77.7043 118.976L65.8209 119.282C65.7224 119.286 65.6243 119.298 65.5278 119.319C65.2672 119.367 65.02 119.471 64.8029 119.623C64.5858 119.774 64.4038 119.971 64.2692 120.199C64.1345 120.427 64.0504 120.681 64.0224 120.944C63.9943 121.207 64.0231 121.473 64.1067 121.724L66.1718 136.868ZM78.7617 124.113L79.5396 121.332C79.6281 121.011 79.6302 120.672 79.5456 120.35C79.5833 120.35 79.6166 120.332 79.6544 120.332C80.1877 120.321 80.7036 120.521 81.0889 120.889C81.4743 121.258 81.6977 121.763 81.7102 122.296C81.7227 122.828 81.5232 123.344 81.1555 123.729C80.7879 124.115 80.282 124.34 79.7487 124.354C79.4039 124.364 79.0626 124.281 78.7617 124.113Z" fill="#CCCCCC"/>
<path d="M65.5278 119.319C65.781 120.764 68.6274 121.78 72.05 121.603C75.1973 121.458 77.7707 120.355 78.2422 119.048C78.0677 118.996 77.8863 118.972 77.7043 118.976L65.821 119.282C65.7224 119.286 65.6243 119.298 65.5278 119.319Z" fill="white"/>
<path d="M122.336 88.3869C121.629 88.4127 120.959 88.713 120.47 89.2241C119.981 89.7351 119.711 90.4164 119.718 91.1232C119.721 91.2668 119.737 91.4099 119.764 91.551L111.599 96.3631L112.587 101.358L123.059 93.5589C123.636 93.4009 124.144 93.0565 124.505 92.5796C124.866 92.1026 125.058 91.5199 125.052 90.9224C125.045 90.5824 124.972 90.2471 124.835 89.9356C124.699 89.6241 124.502 89.3424 124.256 89.1068C124.011 88.8711 123.721 88.686 123.404 88.5621C123.087 88.4382 122.748 88.3778 122.408 88.3845C122.384 88.385 122.36 88.3858 122.336 88.3869Z" fill="#FFB6B6"/>
<path d="M115.648 99.8588C115.429 99.5667 115.335 99.4444 115.286 99.4779C115.158 99.555 115.281 100.587 114.382 102.386C113.116 104.912 99.8419 108.783 99.8419 108.783L98.2076 105.796L91.0191 92.6707L88.5413 82.1504C88.4547 81.7836 88.4126 81.4077 88.416 81.0308C90.6251 79.479 92.9712 78.1309 95.425 77.0034C96.4056 77.5586 97.1531 78.4477 97.5309 79.5079L102.479 93.3579L104.454 98.8876C104.454 98.8876 107.937 96.4014 109.2 96.8577C110.462 97.317 110.82 96.6731 109.996 94.6118C109.171 92.5506 110.409 94.6723 111.849 94.8072C113.292 94.9441 111.849 94.8072 112.531 93.9325C113.212 93.0579 117.619 92.5657 117.619 92.5657L117.713 92.7609L119.421 96.2678L119.91 97.2754C119.91 97.2754 118.099 99.2364 117.662 99.6272C117.223 100.021 117.088 99.9936 117.303 100.442C117.515 100.889 116.406 100.868 115.648 99.8588Z" fill="#5E81F4"/>
</svg>
